<?xml version="1.0" encoding="UTF-8"?>
<svg id="Calque_2" data-name="Calque 2" xmlns="http://www.w3.org/2000/svg" viewBox="0 0 58.01 59.3">
  <defs>
    <style>
      .cls-1 {
        fill: #fbfbff;
        stroke-width: 0px;
      }
    </style>
  </defs>
  <g id="Versions_finales" data-name="Versions finales">
    <g>
      <path class="cls-1" d="m40.16,7.18c1.05.52,3.26.71,5.49.75-.49-1.54.46-6.44-2.05-7.68-2.52-1.25-5.87,2.52-7.38,3.04,1.39,1.74,2.89,3.37,3.94,3.89Z"/>
      <path class="cls-1" d="m53.97,43.46c5.86-11.84,6.58-23.42-6.33-33.78-1.85.9-3.67,1.95-4.09,2.81-.92,1.87,1.47,9.67,1.47,9.67,0,0-5.18-7.87-7.75-9.14-2.57-1.27-11.97-.58-11.97-.58,0,0,7.55-2.89,8.47-4.77.42-.85.17-2.93-.22-4.94C17.55-1.2,8.8,6.4,2.96,18.22c-6.97,14.09-1.2,31.16,12.89,38.12,14.09,6.97,31.16,1.2,38.12-12.89Z"/>
    </g>
  </g>
</svg>