<?xml version="1.0" encoding="UTF-8"?>
<svg id="Calque_2" data-name="Calque 2" xmlns="http://www.w3.org/2000/svg" viewBox="0 0 600 369.35">
  <defs>
    <style>
      .cls-1 {
        fill: #b9bcc6;
      }

      .cls-1, .cls-2, .cls-3, .cls-4, .cls-5, .cls-6, .cls-7, .cls-8, .cls-9, .cls-10, .cls-11, .cls-12, .cls-13, .cls-14, .cls-15, .cls-16 {
        stroke-width: 0px;
      }

      .cls-2 {
        fill: #fbfbff;
      }

      .cls-3 {
        fill: #9694eb;
      }

      .cls-4 {
        fill: #9594c1;
      }

      .cls-5 {
        fill: #d4d5dc;
      }

      .cls-6 {
        fill: #eeeff1;
      }

      .cls-7 {
        fill: #c0bff3;
      }

      .cls-8 {
        fill: #7a79b2;
      }

      .cls-9 {
        fill: #094187;
      }

      .cls-10 {
        fill: #afafd1;
      }

      .cls-11 {
        fill: #cac9e0;
      }

      .cls-12 {
        fill: #9699a8;
      }

      .cls-13 {
        fill: #e5e6ea;
      }

      .cls-14 {
        fill: #f4f4f4;
      }

      .cls-15 {
        fill: #aba9ef;
      }

      .cls-16 {
        fill: #2d0e30;
      }
    </style>
  </defs>
  <g id="code">
    <path class="cls-8" d="m469.59,111.54c1.75.88-2.72,2.28-1.54,3.84,1.09,1.45,1.51,3.29,1.89,5.07,4.11,19.32,6.48,39.02,7.08,58.76.03,1.16-.04,2.52-.99,3.17-.78.53-1.82.34-2.77.33-2.78-.01-5.21,1.73-7.64,3.08s-5.53,2.33-7.9.86c-2.83-1.76-2.85-5.78-2.74-9.11.69-20.33-5.94-40.27-6.43-60.61-.36-14.72,2.03-29.8-3.27-43.96-.74-1.97-1.67-3.93-1.96-6.02-.03-.25.5-5.04,1.12-4.59,9.61,7.02,13.38,19.09,23.61,27.68.46-14.14,2.86-26.9-.25-39.74,15.99-5.24,30.43-2.08,43.19,8.5,10.02,8.31,19.73,17.01,29.5,25.62,10.13,8.93,17.85,19.71,23.7,31.82,3.44,7.13,8.37,13.51,10.59,21.24-7.26,2.4-14.43,5.13-21.8,7.1-4.95,1.33-6.96,4.43-8.55,8.87-1.82,5.08-1.74,11.06-6.39,14.94-6.02-.18-12.03-.36-18.05-.53-1.14-3.3.65-7.08-1.66-10.35-4.59-.27-8.43,2.47-12.75,3.14-.6.09-4.24-5.39-4.78-6.08-1.68-2.1-3.38-4.18-5.09-6.25-3.35-4.06-6.76-8.07-10.2-12.05-7.31-8.48-14.75-16.85-22.07-25.33-1.58-1.83-3.38-3.57-4.92-5.39-1.62-1.92-2.68-4.72-3.82-6.95-2.49-4.84-4.75-9.83-6.3-15.05-.46-1.54-.86-3.09-1.27-4.65"/>
    <path class="cls-10" d="m538.01,168.4c4.66-3.88,4.57-9.86,6.39-14.94,1.59-4.43,3.6-7.54,8.55-8.87,7.37-1.97,14.55-4.7,21.8-7.1,3.63,7.72,4.98,16.12,6.97,24.3,1.15,4.72-.28,9.25-3.07,13.32-1.97,2.88-4.55,5.38-5.6,8.84-4.41,4.83-8.34,10.01-11.32,15.86-1.85,1.31-2.94,3.16-3.75,5.22-8.47,9.96-15.42,21.02-22.92,31.68-3.54,5.03-4.08,10.98-3.72,17-4.02,5.03-4.91,10.78-4.41,16.82,4.13,1.9,7.35.64,10.53-1.03,4.68,4.91-.76,7.4-2.57,10.76-4.14.81-8.33,1.44-12.04,3.65-11.47,12.35-18.94,27.47-28.5,41.14-3.23.24-5.39-2.01-7.94-3.38-5.4-2.9-9.9-7.39-16.02-9,1.06-6.18,5.26-11.25,6.57-17.21,2.89-13.2,11.84-23.61,15.96-36.18,2.96-4.91,5.08-10.1,6.58-16.91-6.24,1.48-11.5,1.69-16.1,4.63-12.18-10.83-24.73-21.27-36.43-32.59-11.08-10.72-7.84-25.2,6.3-31.31,17.4-7.52,34.83-14.97,52.25-22.44,4.32-.67,8.16-3.41,12.75-3.14,2.31,3.26.52,7.04,1.66,10.35-.85,11.4-6.34,21.94-7.57,33.66,5.97-.56,4.09-6.3,7.86-8.06,4.75,8.81,6.05,19.09,11.8,28.66,7.74-15.23,12.57-29.41,5.84-45.04-1.29-2.99-.35-5.8.12-8.69Zm-29.54,35.94c-5.19.76-9.72,1.54-14.22,4.05,2.37,3.39,3.88,6.45,6.9,8.45,3.6-3.73,5.32-7.72,7.31-12.5Z"/>
    <path class="cls-10" d="m313.73,230.49c-.64,10.15-5.88,17.5-14.08,23.04-13.85,3.76-28.22.5-41.9,2.48-1.6,3.06-.95,5.74-.94,8.37-1.2,11.92-6.03,22.85-9.52,34.12-1.66,5.37-1.97,10.29.11,15.57,2.17,5.5,3.81,11.22,5.68,16.84-3.66,9.07-13.69,3.33-19.37,8.29-2.58,2.25-1.86-3.16-4.62-3.44-6.1-.62-11.21.54-15.16,5.44-.8-4.53.92-8.77,1.56-13.13,1.89-12.96-2.6-24.35-9.47-34.75-9.81-14.86-18.83-29.99-24.65-46.95-3.87-11.29-2.39-19.11,6.48-26.69,2.21-.03,4.42-.05,6.63-.08,11.4-1.71,22.79-3.56,34.21-5.07,9.72-1.29,9.74-1.12,10.58-10.82,8.58-1.7,2.84,6.36,5.91,8.8,11.06.64,22.23,1.52,33.42,1.86,10.49.32,19.59,3.53,27.33,10.73,2.29,2.13,4.16,5.13,7.82,5.38Zm-90.2,1.97c-5.04.63-9.56,1.74-14.24,1.81-2.82.04-5.75,2.18-3.06,5.2,3.94,4.43,7.45,9.66,13.84,12.23,1.63-6.58,5.12-12.2,3.46-19.24Z"/>
    <path class="cls-8" d="m313.73,230.49c-3.66-.25-5.52-3.25-7.82-5.38-7.74-7.2-16.84-10.41-27.33-10.73-11.19-.34-22.36-1.22-33.42-1.86-3.07-2.44,2.67-10.5-5.91-8.8-.29-.54-.58-1.07-.88-1.61,11.81-8.29,12.3-12.69,2.53-22.25-.82-.8-1.44-1.79-2.16-2.7,8.27-9.81,16.42-19.71,23.51-30.43,3.97-12.46,13.78-17.84,25.45-21.03,2.24-.61,4.4-1.53,6.59-2.31,1.76,5.63-1.37,12.13,3.05,18.45,7.09-7.26,12.77-14.56,18.16-22.12,3.05-2.44,6.1-4.88,9.15-7.32,1.9.63,4.58-.34,3.8,3.88-1.37,7.32.85,14.48,2.33,21.71,3,14.67,7.78,29.01,8.69,44.09-8.58,16.13-17.16,32.26-25.74,48.39Z"/>
    <path class="cls-14" d="m56.47,55.52c0-15.72.21-31.44-.12-47.15-.12-5.88,1.2-8.44,7.79-8.31,21.08.39,42.17.38,63.25,0,6.55-.12,8.02,2.35,7.83,8.28-.37,11.55-.11,23.13-.11,34.7-5.6,0-11.2.06-16.8,0-4.41-.04-6.48,2.04-6.44,6.45.06,6.18,0,12.36,0,18.54-5.23,3.76-10.09,8.09-16.08,10.71-9.64-3.92-17.53-10.66-26.17-16.19-4.17-2.67-7.78-6.54-13.14-7.02Z"/>
    <path class="cls-6" d="m222.69,144.78q-.25,8.88-9.15,8.92c-2.9.01-5.81,0-8.71,0-7.07-9.1-18.7-11.98-26.82-19.64,0-15.47,0-30.93.01-46.4,3.95-.31,3.7-3.25,3.53-5.9-.38-6.03.38-11.52,4.05-16.78,4.99-7.14,8.97-14.88,8.6-24.08-.09-2.21,1.5-3.02,3.47-3.22h0c2.74,7.81-2.06,18.36,8.52,23.43.55.26.3,2.19.42,3.34,3.01,5.88,4.19,12.08,3.65,18.7-.18,2.19-.84,5.47,2.37,5.89,5.38.7,4.7,4.38,4.7,7.9.01,13.67.06,27.34-.03,41.01-.02,3.87-.02,7.39,5.4,6.83Z"/>
    <path class="cls-6" d="m294.3,123.4c-2.2.78-4.35,1.69-6.59,2.31-11.67,3.19-21.48,8.57-25.45,21.03-8.42-.01-16.84-.02-25.26-.04,0-13.65-.82-27.36.21-40.94,1.05-13.76-3.72-26.6-4.39-40.01-.02-.44-.76-.84-1.17-1.26,0-.61-.02-1.21-.03-1.82,4.22-.12,9,.59,11.84,2.8,9.33,7.28,19.56,13.08,29.23,19.76,3.14,2.17,7.72,2.84,10.32,8.12h-22.57c.03.49.06.98.09,1.47h26.54c-.88,9.48-.22,18.5,7.47,25.47-.08,1.03-.16,2.07-.24,3.1Z"/>
    <path class="cls-14" d="m231.63,16.26q-.02-16.06,15.8-16.06c18.41,0,36.83.19,55.23-.11,5.71-.09,7.9,1.47,7.73,7.46-.4,13.63-.15,27.28-.17,40.92-8-1.67-14.24,1.47-19.56,7.13-.7-1.73-2.1-2.7-3.62-3.7-12.5-8.24-24.84-16.75-37.46-24.79-5.89-3.75-10.99-8.85-17.95-10.85Z"/>
    <path class="cls-14" d="m197.67,37.68c-1.97.2-3.56,1.01-3.47,3.22.37,9.19-3.62,16.94-8.6,24.08-3.67,5.26-4.43,10.75-4.05,16.78.17,2.66.42,5.6-3.53,5.9,0-4.69-.17-9.4.03-14.08.18-4.23-1.7-5.66-5.77-5.59-9.4.17-18.8.06-28.2.06,0-21.43-.01-42.85-.02-64.28.59-.6,1.19-1.19,1.78-1.79.6,0,1.2,0,1.79,0,14.28,9.51,28.61,18.95,42.78,28.61,2.76,1.88,6.87,2.69,7.27,7.1Z"/>
    <path class="cls-16" d="m444.43,62.36c-.33.66-.66,1.33-.99,1.99-1.73-.45-3.27-.64-2.81,1.99l.24-.16c-6.98-.9-7.43-7.42-10.26-11.9,3.46,1.41,5.43-2.12,8.34-2.52,1.17-.02,2.33,2.52,3.37.37.72-1.48,2.09-2.96,2.02-4.71-.09-2.19-2.58-3.06-3.08-5.19-.23-.98-.3-2-.66-2.94-.62-1.63-2.04-2.84-3.61-3.59-3.05-1.45-6.33-1.12-8.91-3.56-1.08-1.02-1.96-2.23-2.81-3.44-.36-.5-2.78-3.18-2.67-3.64q-2.89,12.54-13.3,14.36c-1.98-4.4,1.66-8.65-.16-13.61-1.27-3.44,2.86-7.86,6.68-9.58,8.32-3.73,15.45-9.4,23.54-13.42,5.42-2.7,11.22-3.86,17.19-1.59,1.74.66,3.37.61,5.19.3,6.93-1.18,14.36-4.69,18.17,5.72.91,2.48,6.9,1.15,9.12,5.23-1.86,4.38-7.52,3.9-10.83,7.89,1.28,1.84,4.77,1.74,5.27,4.47-4.81,5.52-10.09,10.67-12.21,18.22-.55,1.95-4.09,3.07-6.26,4.57-8.5,2.61-17.79,4.14-20.56,14.74Zm5.9-40.56q-6.96,13.44,2.13,22.39c5.55-1.85,10.98-4.36,11-11.03.02-7.83-7.41-8.7-13.14-11.36Z"/>
    <path class="cls-13" d="m144.06,68.05c9.4,0,18.81.1,28.2-.06,4.07-.07,5.95,1.36,5.77,5.59-.2,4.69-.03,9.39-.03,14.08,0,15.47,0,30.93-.01,46.4-11.31-7.15-22.62-14.3-33.93-21.44,0-14.86,0-29.71,0-44.57Z"/>
    <path class="cls-15" d="m93.79,155.84c1.06,8.3,5.6,15.43,7.86,23.34,1.29,4.5,5.32,4.78,9.4,4.75,15.94-.1,31.89.11,47.84-.12,6.23-.09,7.35,2.26,4.78,7.41-.99.21-1.98.41-2.96.62-3.19-1.06-6.49-.67-9.74-.67-19.93-.03-39.86.04-59.79-.08-2.69-.02-6.79,1.55-7.54-2.54-.98-5.37-4.63-4.47-8.06-4.47-17.25,0-34.51.04-51.76.07-7.69-20.28-15.39-40.55-23.8-62.72h56.44c5.95,0,11.91.01,17.86.02,5.18-.54,7.13,2.86,8.67,6.94,2.15,5.69,3.51,11.72,7.21,16.74,0,3.98.8,7.68,3.6,10.71ZM8.81,125.35c-.29,2.17-.74,3.15-.48,3.88,5.72,15.56,11.59,31.07,17.24,46.66,1.56,4.31,4.66,4.67,8.48,4.65,15.17-.09,30.34.05,45.51-.09,5.23-.05,10.58.86,16.96-1.11-6.43-17.25-12.7-34.1-18.99-50.93-.84-2.24-2.7-3.05-4.96-3.05-21.07,0-42.15,0-63.76,0Z"/>
    <path class="cls-16" d="m160.7,191.85c.99-.21,1.98-.41,2.96-.62,6.61.56,13.22.59,19.83,0,.45.37.96.52,1.54.47,6.97,1.98,14.05.74,21.08.72,3.55.68,7.29.85,9.92,3.88.1,3.97-2.66,3.73-5.38,3.73-6.74.01-13.48.11-20.22.18-2.41.06-4.83.12-7.24.17-43.98-.59-87.97-.58-131.95-.01-2.42-.05-4.84-.1-7.26-.15h-24.93c-1.77-5.64-1.37-9.12,5.2-8.89,2.14,2.37,4.99,1.44,7.54,1.45,40.36.08,80.72.09,121.08.08,2.63,0,5.37.55,7.81-1Z"/>
    <path class="cls-6" d="m111.87,68.02c0-6.18.06-12.36,0-18.54-.04-4.4,2.03-6.49,6.44-6.45,5.6.06,11.2,0,16.8,0,2.62,17.32,1.61,34.76,1.78,52.16.03,3.56.25,7.13-1.78,10.32-6.56-4.17-13.12-8.34-19.68-12.52,0-7.53-.09-15.07.06-22.6.06-3.13-1.2-3.44-3.63-2.38Z"/>
    <path class="cls-13" d="m185.03,191.68c-.58.06-1.09-.1-1.54-.47-2.1-4.28-7.68-2.22-10.57-5.44,1.83-3.54,5.71-.34,7.92-3.15-5.97-4.24-12.66-5.75-20.68-5.7,3.19-3.19,6.38-3.41,9.51-3.43,12.6-.09,24.86,2.63,37.24,4.42,7.17,1.04,14.54,2.3,21.63-.86,3.4.04,6.81.07,10.21.11.71.9,1.34,1.9,2.16,2.7,9.77,9.56,9.28,13.96-2.53,22.25-7.49-1.77-14.31-6.12-22.34-5.84-2.63-3.03-6.38-3.19-9.92-3.88-6.96-2.17-14.01-1.71-21.08-.72Z"/>
    <path class="cls-15" d="m43.99,200.21c2.42.05,4.84.1,7.26.15-9.5,35.42-18.98,70.84-28.5,106.25-4.77,17.71-9.62,35.4-14.44,53.09-.46,1.71-.86,3.44-1.46,5.1-.63,1.75-1.67,3.3-3.88,2.69-2.27-.63-2.29-2.75-1.91-4.38,1.97-8.34,4.03-16.66,6.28-24.93,11.99-43.95,24.06-87.88,36.03-131.83.53-1.96.43-4.1.62-6.15Z"/>
    <path class="cls-4" d="m213.91,341.2c3.95-4.9,9.07-6.06,15.16-5.44,2.76.28,2.05,5.69,4.62,3.44,5.69-4.96,15.71.78,19.37-8.29,4.77.15,2.83,4.12,3.7,6.48.05,1.43.1,2.85.15,4.28-.05,2.16-.09,4.32-.14,6.48-5.74.49-11.62-.73-17.54.97-.17,2.89-.32,5.48-.47,8.07.01,1.89.36,3.86-1.18,5.41-8.8-2.97-17.59-2.91-26.39,0-1.36-3.44-1.63-7.32-5.77-9.36-2.51-1.23-5.23-3.53-4.03-7.1,1.2-3.58,4.63-3.12,7.53-3.38,1.78-.16,3.58-.23,4.98-1.57Z"/>
    <path class="cls-4" d="m489.4,332.51c-.64,5.17-1.28,10.35-1.93,15.52-7.06.74-14.49,1.44-20.18,5.61-5.24,3.83-10.8,5.63-16.76,7.38-5.58,1.64-11.58,1.93-16.76,4.92-3.02.05-5.14-1.15-5.65-4.31-.43-2.69.8-4.99,3.26-5.56,14.51-3.38,22.51-13.91,29.38-25.87.52-.91,1.82-1.37,2.76-2.04,1.53.93,3.52,1.9,3.58,3.7.26,7.04,5.27,5.82,9.54,5.62,3.37-.16,6.14-1.91,8.6-4.18,1.16-1.07,2.28-3.16,4.15-.79Z"/>
    <path class="cls-1" d="m238.75,177.17c-3.4-.04-6.81-.07-10.21-.11-.3-2.65-.11-5.48-1-7.92-2.86-7.85-1.16-14.52,4.38-20.48,1.78-.43,3.91.04,5.09-1.96,8.42.01,16.84.02,25.26.04-7.09,10.72-15.23,20.63-23.51,30.43Z"/>
    <path class="cls-3" d="m160.7,191.85c-2.45,1.54-5.19.99-7.81,1-40.36.01-80.72,0-121.08-.08-2.55,0-5.4.92-7.54-1.45-.15-2.39-.31-4.78-.46-7.16,17.25-.03,34.51-.08,51.76-.07,3.43,0,7.08-.9,8.06,4.47.75,4.09,4.85,2.52,7.54,2.54,19.93.12,39.86.05,59.79.08,3.26,0,6.55-.39,9.74.67Z"/>
    <path class="cls-5" d="m271.06,264.48c.04,24.15.07,48.31.11,72.46-3.12.7-6.25.59-9.39.17.09-24.26.19-48.52.28-72.78l9.01.14Z"/>
    <path class="cls-2" d="m444.43,62.36c2.77-10.59,12.05-12.12,20.56-14.74.93.89,1.86,1.79,2.79,2.68,3.11,12.84.71,25.6.25,39.74-10.22-8.59-13.99-20.66-23.61-27.68Z"/>
    <path class="cls-13" d="m222.69,144.78c-5.41.56-5.42-2.96-5.4-6.83.09-13.67.04-27.34.03-41.01,0-3.52.68-7.21-4.7-7.9-3.21-.42-2.55-3.7-2.37-5.89.54-6.61-.64-12.81-3.65-18.7,5.36,0,10.72,0,16.08,0,0,26.77,0,53.55,0,80.32Z"/>
    <path class="cls-14" d="m56.46,89.45c7.52.97,12.68,5.88,17.87,10.72-.01,7.09-.02,14.19-.03,21.28-5.95,0-11.91-.01-17.86-.02,0-10.66.02-21.32.02-31.98Z"/>
    <path class="cls-12" d="m261.78,337.11c3.14.42,6.27.52,9.39-.17,14.6.75,28.98,2.69,42.81,7.7,6.91,2.5,9.83,18.33,4.25,23.13-2.82,2.43-5.54,1.93-7.84-.63-2.15-2.39-4.81-4.86-1.9-8.49,1.15-1.43,2.68-2.22,4.29-3.05,4.86-2.5,3.19-5.03-.54-6.59-3.53-1.48-7.36-2.31-11.12-3.19-14.54-3.41-29.25-5.07-44.2-4.16-.05-1.43-.1-2.85-.15-4.28l5.01-.29Z"/>
    <path class="cls-1" d="m271.06,264.48l-9.01-.14c-1.75.02-3.5.03-5.25.05,0-2.63-.66-5.31.94-8.37,13.69-1.98,28.05,1.27,41.9-2.48.29,0,.59,0,.88.03,3.86.38,9.41-1.16,9.43,4.95.02,6.25-5.51,5.66-9.84,5.73-9.69.15-19.37.17-29.06.24Z"/>
    <path class="cls-14" d="m283.45,80.51c-9.64-1.17-15.45-8.98-23.14-13.52-9.54-5.63-18.26-12.66-28.68-16.82,0-2.97,0-5.94,0-8.92,4.38-.85,7.13,2.38,10.2,4.37,12.99,8.43,25.82,17.11,38.65,25.78,1.5,1.01,2.88,2,4.75,1.98.36,2.61-.5,4.92-1.77,7.13Z"/>
    <path class="cls-11" d="m489.4,332.51c-1.88-2.37-2.99-.28-4.15.79-2.46,2.26-5.23,4.02-8.6,4.18-4.27.2-9.27,1.42-9.54-5.62-.07-1.8-2.06-2.77-3.58-3.7.65-5.89,2.53-11.23,6.87-15.48,6.12,1.61,10.62,6.1,16.02,9,2.55,1.37,4.71,3.62,7.94,3.38-1.16,2.82-2.41,5.57-4.96,7.46Z"/>
    <path class="cls-13" d="m94.01,112.66c4.3.77,5.14,6.48,10.39,6.69,2.61.1,2.09,4.37,2.1,6.97.03,9.12,0,18.25-.01,27.37-4.16,0-8.33,0-12.49,0,0-13.68,0-27.36.01-41.04Z"/>
    <path class="cls-1" d="m561.74,199.82c2.98-5.85,6.91-11.03,11.32-15.86,7.12.05,14.24.1,21.37.16-.9,15.24-7.08,20.48-21.4,17.36-3.77-.82-7.51-1.19-11.28-1.66Z"/>
    <path class="cls-14" d="m222.68,64.46c-5.36,0-10.72,0-16.08,0-.12-1.15.13-3.08-.42-3.34-10.58-5.07-5.77-15.62-8.52-23.43,7.16.07,11.26,5.95,16.89,8.93,2.85,1.51,5.43,3.55,8.13,5.35,0,4.17,0,8.33,0,12.5Z"/>
    <path class="cls-6" d="m115.46,126.92c7.59,1.68,12.05,9.06,19.64,10.73-.54,4.96.8,9.78,1.54,14.99-7.26,2.01-14.29.67-21.21,1.03,0-8.92.02-17.84.03-26.76Z"/>
    <path class="cls-14" d="m110.05,110.88c-4.15-1.27-19.58-11.27-21.72-14.96-2.1-3.63-5.8-.67-8.52-3.18-4.5-4.16-10.2-7-15.34-10.48-2.47-1.67-4.91-3.33-8.01-3.53,0-2.97,0-5.94,0-8.91,9.84,2.95,16.95,10.38,25.19,15.85,7.71,5.12,14.91,11.05,23.14,15.42,2.08,1.11,4.38,1.91,5.29,4.4-.01,1.8-.02,3.6-.03,5.39Z"/>
    <path class="cls-8" d="m433.78,365.94c5.18-2.99,11.17-3.29,16.76-4.92,5.96-1.75,11.52-3.55,16.76-7.38,5.69-4.16,13.12-4.86,20.18-5.61,1.37,6.25-2.2,9.34-7.46,10.82-11.12,3.15-22.3,6.08-33.5,8.95-4.43,1.14-8.79.77-12.74-1.87Z"/>
    <path class="cls-13" d="m237,146.7c-1.17,2-3.31,1.53-5.09,1.96-.08-28.06-.17-56.11-.25-84.17.41.42,1.14.82,1.17,1.26.67,13.41,5.44,26.24,4.39,40.01-1.04,13.57-.22,27.29-.21,40.94Z"/>
    <path class="cls-9" d="m364.02,187.78c-.49-8.68-3.4-16.79-6.38-24.78-3.92-10.52-8.15-20.95-12.91-31.1-2.49-5.31-1.69-8.88,2.87-12.04,6.06,18.57,12.21,37.11,18.13,55.72,1.32,4.16,2.39,8.64-1.7,12.21Z"/>
    <path class="cls-5" d="m561.74,199.82c3.77.47,7.51.84,11.28,1.66,14.33,3.12,20.5-2.12,21.4-17.36,3.65-.45,5.26.85,5.53,4.82.55,8.18-3.52,14-9.92,17.5-4.75,2.6-6.82,5.8-7.45,11.55-3.08-15.21-16.37-8.91-24.59-12.95.8-2.06,1.9-3.91,3.75-5.22Z"/>
    <path class="cls-13" d="m144.07,126.98c13.61,8.11,26.97,16.6,39.22,26.69-8.16,1.27-15.1-1.35-21.46-6.36-3.48-2.74-7.15-5.35-11.07-7.37-5.5-2.84-7.7-6.97-6.69-12.96Z"/>
    <path class="cls-6" d="m110.05,110.88c.01-1.8.02-3.6.03-5.39,8.57,2.64,14.78,9.65,23.23,12.53,2.21,3.3,1.83,7.03,1.8,10.71-8.69-5.47-18.21-9.78-25.06-17.84Z"/>
    <path class="cls-8" d="m211.2,362.61c8.8-2.91,17.59-2.97,26.39,0-.11.58-.08,1.23-.33,1.74-4.21,8.55-12.2,3.05-18.29,4.65-4.12,1.08-7.43-1.5-7.76-6.39Z"/>
    <path class="cls-13" d="m115.46,126.92c0,8.92-.02,17.84-.03,26.76-1.78,0-3.55.01-5.33.02v-28.83c3.36-1.73,4.3.27,5.36,2.06Z"/>
    <path class="cls-8" d="m238.77,357.2c.15-2.59.3-5.18.47-8.07,5.92-1.7,11.79-.48,17.54-.97,2.37,6.9-2.84,7.92-7.33,8.78-3.45.66-7.11.21-10.68.26Z"/>
    <path class="cls-14" d="m94.01,112.66c0,13.68,0,27.36-.01,41.04-.07.71-.14,1.43-.2,2.14-2.8-3.03-3.61-6.73-3.6-10.71.08-10.83.17-21.66.25-32.49l3.57.02Z"/>
    <path class="cls-11" d="m483.42,247c4.6-2.94,9.86-3.15,16.1-4.63-1.5,6.81-3.63,12-6.58,16.91-.38-6.25-8.76-6.31-9.51-12.27Z"/>
    <path class="cls-4" d="m537.47,269.5c-3.18,1.67-6.4,2.93-10.53,1.03-.49-6.04.39-11.78,4.41-16.82,4.22,4.42,4.48,10.37,6.12,15.79Z"/>
    <path class="cls-15" d="m183.2,200.37c2.41-.06,4.83-.12,7.24-.17-.36,6.82,3.09,12.86,4.02,19.42-2.21.03-4.42.05-6.63.08-1.54-6.44-3.09-12.88-4.63-19.32Z"/>
    <path class="cls-2" d="m538.01,168.4c-.47,2.89-1.4,5.7-.12,8.69,6.73,15.63,1.9,29.81-5.84,45.04-5.75-9.57-7.05-19.85-11.8-28.66-3.78,1.76-1.89,7.5-7.86,8.06,1.22-11.72,6.71-22.25,7.57-33.66,6.02.18,12.03.36,18.05.53Z"/>
    <path class="cls-6" d="m508.47,204.34c-2,4.78-3.72,8.77-7.31,12.5-3.03-1.99-4.53-5.06-6.9-8.45,4.5-2.51,9.02-3.29,14.22-4.05Z"/>
    <path class="cls-4" d="m223.53,232.47c1.67,7.04-1.83,12.66-3.46,19.24-6.39-2.57-9.9-7.8-13.84-12.23-2.69-3.02.24-5.16,3.06-5.2,4.68-.07,9.19-1.18,14.24-1.81Z"/>
    <path class="cls-2" d="m294.54,120.3c6.99-.19,13.98-.38,20.96-.56-5.39,7.55-11.07,14.86-18.16,22.12-4.41-6.32-1.29-12.81-3.05-18.45.08-1.03.16-2.07.24-3.1Z"/>
    <path class="cls-13" d="m115.43,93c-6.64-4.64-14.38-7.75-19.65-14.26,6-2.62,10.85-6.95,16.08-10.71,2.43-1.06,3.69-.75,3.63,2.38-.16,7.53-.06,15.07-.06,22.6Z"/>
    <path class="cls-3" d="m450.33,21.8c5.73,2.67,13.16,3.53,13.14,11.36-.02,6.68-5.45,9.19-11,11.03q-9.1-8.95-2.13-22.39Zm4.79,17.56c2.22-1.29,5.21-2.73,5.01-6.12-.21-3.55-2.67-6.31-6.39-5.91-3.44.36-6.12,2.92-5.45,6.73.53,3.03,2.89,5.02,6.83,5.3Z"/>
    <path class="cls-2" d="m438.96,51.77c-.2-3.14.45-5.83,3.81-7.04,3.25,2.65.66,5.13-.44,7.41-1.04,2.15-2.2-.39-3.37-.37Z"/>
    <path class="cls-13" d="m90.44,112.64c-.08,10.83-.17,21.66-.25,32.49-3.7-5.02-5.06-11.05-7.21-16.74-1.54-4.08-3.49-7.47-8.67-6.94.01-7.09.02-14.19.03-21.28,5.91,3.46,14,4.11,16.11,12.47Z"/>
    <path class="cls-16" d="m185.03,191.68c7.07-.99,14.12-1.45,21.08.72-7.04.02-14.11,1.26-21.08-.72Z"/>
    <path class="cls-2" d="m422.81,42.93c2.96-2.85,3.32-.42,3.76,1.85-1.58.04-3.03-.17-3.76-1.85Z"/>
    <path class="cls-7" d="m455.12,39.36c-3.94-.28-6.3-2.27-6.83-5.3-.67-3.81,2.01-6.36,5.45-6.73,3.72-.39,6.17,2.36,6.39,5.91.2,3.38-2.79,4.83-5.01,6.12Z"/>
    <path class="cls-3" d="m56.12,162.39c-4.01.26-3.82,6.91-8.37,3.97-5.26-3.4,1.73-5.77.84-9.6-3.55-2.61-7.56-5.57-11.58-8.52-1.74-1.27-3.36-2.54-1.84-5.02,1.92-3.14,3.87-1.49,5.85-.1,4.08,2.88,8.16,5.76,12.47,8.8,1.56-1.97,2.73-3.64,4.09-5.13,1.63-1.78,2.61-5.36,6.11-3.11,3.69,2.37.55,4.49-.59,6.6-.96,1.78-2.78,3.09-2.96,4.75.07,5.08,11.79,4.63,5.1,12.29-3.89-.45-5.9-3.97-9.12-4.93Z"/>
    <path class="cls-16" d="m328.77,116.2c-3.57.35-7.13.71-10.7,1.06,2.1-9.88,4.21-19.77,6.55-30.75-1.31-1.95-3.92-6.37-7.09-10.35-3.36-4.22-7.26-8.01-10.92-11.98-3.72,4.79-10,9.26-10.65,14.43-1.71,13.51-.96,27.32-1.19,41.02-4.38-2.73-8.75-5.46-13.12-8.19-17.36-29.9-18.69-40.51,1.86-52.57,11.68-6.86,30.01-6.9,44.09-3.99,15.72,3.26,24.9,18.55,23.91,34.41-.53,8.5-10.05,16.44-15.51,24.64-2.4.75-4.81,1.5-7.22,2.26Z"/>
    <path class="cls-2" d="m294.76,119.63c.23-13.69-.52-27.51,1.19-41.02.66-5.18,6.94-9.64,10.65-14.43,3.66,3.98,7.56,7.77,10.92,11.98,3.17,3.98,5.78,8.4,7.09,10.35-2.34,10.97-4.45,20.86-6.55,30.75-6.69,11.31-14.15,15.18-23.31,2.38Z"/>
    <path class="cls-2" d="m339.47,182.1c-.91-15.08-5.69-29.42-8.69-44.09-1.48-7.23-3.7-14.39-2.33-21.71.79-4.21-1.9-3.24-3.8-3.88,2.97-2.82.68-7.47,3.59-10.3,3.92.7,4.18-2.11,4.44-4.82,11.99,3.46,18,12.63,14.91,22.55-4.55,3.17-5.36,6.74-2.87,12.04,4.76,10.16,9,20.59,12.91,31.1,2.98,7.99,5.89,16.1,6.38,24.78-.99,2.07-1.58,4.51-3.05,6.16-6.41,7.2-14.89,5.44-18.52-3.68-1.07-2.69-1.99-5.44-2.98-8.16Z"/>
  </g>
</svg>