<?xml version="1.0" encoding="UTF-8"?>
<svg id="Calque_2" data-name="Calque 2" xmlns="http://www.w3.org/2000/svg" viewBox="0 0 600 367.41">
  <defs>
    <style>
      .cls-1 {
        fill: #2c85f4;
      }

      .cls-1, .cls-2, .cls-3, .cls-4, .cls-5, .cls-6, .cls-7, .cls-8, .cls-9, .cls-10, .cls-11, .cls-12, .cls-13, .cls-14, .cls-15, .cls-16, .cls-17, .cls-18, .cls-19, .cls-20, .cls-21, .cls-22, .cls-23, .cls-24, .cls-25 {
        stroke-width: 0px;
      }

      .cls-2 {
        fill: #fbfbff;
      }

      .cls-3 {
        fill: #9694eb;
      }

      .cls-4 {
        fill: #9594c1;
      }

      .cls-5 {
        fill: #f8fbfe;
      }

      .cls-6 {
        fill: #dbdde2;
      }

      .cls-7 {
        fill: #7a79b2;
      }

      .cls-8 {
        fill: #f7f7f8;
      }

      .cls-9 {
        fill: #f1f2f4;
      }

      .cls-10 {
        fill: #e8e9ec;
      }

      .cls-11 {
        fill: #afafd1;
      }

      .cls-12 {
        fill: #073f86;
      }

      .cls-13 {
        fill: #c6c8d0;
      }

      .cls-14 {
        fill: #92c2fd;
      }

      .cls-15 {
        fill: #cac9e0;
      }

      .cls-16 {
        fill: #c9cbd2;
      }

      .cls-17 {
        fill: #eeeff2;
      }

      .cls-18 {
        fill: #d0d2d9;
      }

      .cls-19 {
        fill: #d1d2d9;
      }

      .cls-20 {
        fill: #afbed5;
      }

      .cls-21 {
        fill: #bbbec7;
      }

      .cls-22 {
        fill: #d5d4f7;
      }

      .cls-23 {
        fill: #fcfcfd;
      }

      .cls-24 {
        fill: #2d0e30;
      }

      .cls-25 {
        fill: #4f9cfc;
      }
    </style>
  </defs>
  <g id="conduite">
    <path class="cls-11" d="m278.04,343.25c-4.9-9.38-10.83-18.39-14.42-28.25-3.82-10.48-5.43-21.77-8.01-32.7-1.57-11.65-3.13-23.3-4.7-34.95-1.29-4.32-2.57-8.64-3.86-12.95-1.99-10.45-3.97-20.9-5.96-31.36,25.23,3.68,50.45,7.37,75.68,11.05,3.71,15.37,7.41,30.75,11.12,46.12,4.41,10.48,8.82,20.96,13.23,31.44,3.3,12.39,7.16,24.68,9.57,37.24.82,4.28-2,9.25-3.16,13.91-5.83.06-11.66.13-17.5.19-4.33-4.57-10.41-8.42-12.64-13.85-4.97-12.1-8.02-24.98-11.85-37.54-5.3-14.46-10.6-28.92-15.9-43.38-2.14.66-4.28,1.33-6.43,1.99,3.25,13.8,6.5,27.59,9.75,41.39,2.61,12.09,5.77,24.11,7.55,36.32.69,4.76-1.71,9.97-2.71,14.98-6.59.12-13.18.24-19.78.36Z"/>
    <path class="cls-19" d="m465.43,142.76c50.47-6.53,86.53,19.44,119.34,52.77-7.99,2.33-15.97,4.66-23.97,6.99,6.4,18.64,9.44,21.62,27.61,28.3,3.16,2.4,6.33,4.8,9.49,7.2-6.83,5.55-13.66,11.1-20.48,16.66-25.94-44.54-81.53-36.68-97.99,5.56-11.84.1-23.67.2-35.51.3,0,0-.21.33-.21.32.31-11.31-1.66-23.3,1.52-33.74,3.79-12.48,4.65-23.57-.79-35.23,29.87-2.06,59.74-4.12,92.4-6.37-20.29-24.64-40.19-39.83-69.41-35.69-.67-2.36-1.33-4.71-2-7.07Zm37.5,66.3c-.08-.85-.16-1.7-.23-2.55h-24.41c.04.85.08,1.7.11,2.55h24.53Z"/>
    <path class="cls-7" d="m316.77,214.08c-25.23-3.68-50.45-7.37-75.68-11.05-.16-3.78-.31-7.57-.47-11.35.08-2.73.15-5.45.23-8.18,5.55-13.3,11.09-26.6,16.64-39.9.7-4.79,1.4-9.58,2.11-14.37-.62-7.35-1.24-14.7-1.85-22.05.1-1.25.21-2.49.3-3.74,2.9,1.81,5.8,3.61,8.7,5.42,6.07,8.48,11.01,5.92,15.45-1.57,2.36-.23,4.73-.47,7.09-.7,1.24,7.39,2.47,14.78,3.71,22.17-1.77.85-5.03,1.63-5.08,2.57-.49,9.5-.45,19.03-.56,28.55-6.72,3.95-10.4,8.9-5.53,16.69-.72,5.31-1.43,10.62-2.19,16.19,13.29,2.14,25.3,4.08,37.31,6.02-.06,5.1-.11,10.21-.17,15.31Z"/>
    <path class="cls-7" d="m375.87,140.13c3.07-9.26,5.61-18.75,9.48-27.66,1.57-3.62,6.04-5.99,9.19-8.93-2.65,7.86-5.29,15.72-7.94,23.58l1.93.79c5.78-8.09,11.56-16.18,17.35-24.27,1.87,5.08,3.75,10.16,5.9,16,4.62-4.94,9.19-9.82,13.76-14.69.86.18,1.72.37,2.57.55.04,6.38.07,12.75.1,19.13-3.07,6.61-3.38,12.4,4.7,15.67.77,12.83,14.25,23.01,7.82,37.34-.36.78-.72,1.57-1.08,2.35-17.49.17-34.97.34-52.46.51-.16-2.88-.32-5.76-.48-8.64,4.38-11.52-7.23-11.49-11.92-16.46.11-2.05.22-4.1.33-6.14.25-3.05.49-6.09.74-9.14Z"/>
    <path class="cls-19" d="m240.63,191.68c.16,3.78.31,7.57.47,11.35,1.99,10.45,3.97,20.9,5.96,31.36-1.47-.38-3.13-.42-4.37-1.17-29.84-18.12-64.98-6.25-79.31,26.98-10.43-3.7-20.86-7.39-31.29-11.09,1.81-1.24,3.62-2.47,5.43-3.71,16.79,3.37,28.21-5.18,41.13-19.62-13.1-1.64-23.59-2.96-34.08-4.28,1.93-2.15,3.49-5.57,5.85-6.26,25.47-7.41,51.05-14.47,76.65-21.42,4.4-1.19,9.04-1.46,13.57-2.15Z"/>
    <path class="cls-17" d="m430.28,352.33c10.4,0,20.79,0,31.19,0,.73,1.52,1.47,3.04,2.2,4.56-6.06,3.47-12.09,9.88-18.2,9.96-60.63.75-121.27.72-181.9.04-6.13-.07-12.2-5.88-18.29-9.03.72-1.74,1.44-3.49,2.16-5.23,8.46,0,16.92,0,25.38,0,.45.59.9,1.17,1.36,1.76,8.53.08,17.05.16,25.58.24.14-.7.28-1.39.42-2.09h27.72c.15.7.3,1.4.44,2.1,4.11,1.12,8.27,3.36,12.31,3.14,9.04-.47,18.01-2.16,27.01-3.35.21-.59.41-1.18.62-1.77,4.93-.05,9.85-.11,14.78-.16.72,1.15,1.44,2.3,2.16,3.44,12.93,0,25.86,0,38.79,0,2.09-1.21,4.19-2.41,6.28-3.62Z"/>
    <path class="cls-13" d="m252.1,282.28c-3.01,18.61-16.22,31.97-32.96,33.31-20.7,1.67-36.48-8.64-42.55-27.75-.63-1.99-1.45-3.93-2.18-5.89,1.13-25.27,18.38-44.13,39.58-43.27,23.85.97,38.17,17.35,38.12,43.59Zm-64.76-5.7c-.08,15.44,11.16,27.73,25.56,27.94,16.19.24,28.13-11.48,28.13-27.59,0-14.54-12.11-26.04-27.44-26.05-15.46-.01-26.17,10.47-26.25,25.7Z"/>
    <path class="cls-13" d="m568.18,282.28c-3.15,19.07-16.69,32.38-33.91,33.33-21.47,1.18-36.35-9.32-41.92-29.55-.39-1.42-1.22-2.73-1.85-4.08,1.08-25.34,18.19-43.99,40.02-43.64,22.38.36,37.73,18.27,37.67,43.93Zm-64.76-5.15c.02,15.3,11.6,27.43,26.15,27.39,15.76-.04,27.41-11.59,27.55-27.3.12-14.6-11.94-26.28-27.2-26.34-16.4-.06-26.52,9.96-26.5,26.25Z"/>
    <path class="cls-15" d="m445.97,291.53c-5.5,15.36-11.01,30.71-16.52,46.07-5.57-.14-11.14-.27-16.71-.41.69-11.28,2.43-22.62,1.8-33.83-.8-14.03-3.56-27.95-5.47-41.92,11.55-.19,23.1-.38,34.65-.58,0,0,.21-.33.21-.33.68,10.33,1.36,20.66,2.04,31Z"/>
    <path class="cls-17" d="m59.93,68.18c-.02,68.62.02,137.24-.2,205.87-.01,3.28-2.31,6.56-3.55,9.84-1.23-3.29-3.52-6.57-3.53-9.86-.22-68.62-.18-137.24-.19-205.87,2.49,0,4.98,0,7.48.01Z"/>
    <path class="cls-24" d="m428.12,105.5c-.86-.18-1.72-.37-2.57-.55-2.03-7.37-4.07-14.73-6.1-22.1l-2.32.61c-.37,3.63-.74,7.27-1.11,10.9-4.25-4.54-6.93-9.48-8.18-14.74-1.7-7.16-4.25-6.2-8.03-1.78,2.32-5.44,3.22-12.75,7.31-15.85,5.47-4.14,13.31-5.84,20.37-6.84,2.32-.33,5.41,4.78,8.15,7.41,4.72,4.53,10.94,8.26,13.83,13.75,5.83,11.04-1.87,18.42-9.67,25.06-3.89,1.38-7.79,2.76-11.69,4.14Z"/>
    <path class="cls-10" d="m107.9,121.73q-25.83-.09-25.83-25.61,0-33.52,33.61-33.52,25.57,0,25.57,25.86v7.38q0,25.76-25.84,25.91c-2.5,0-5,0-7.5-.01Zm25.93-29.03q0-22.71-22.55-22.71-21.81,0-21.81,21.61,0,22.71,22.55,22.71,21.81,0,21.81-21.61Z"/>
    <path class="cls-10" d="m59.93,68.18c-2.49,0-4.98-.01-7.48-.01-15.45-2.58-28.49-14.59-29.53-27.19C21.26,20.81,28.95,7.59,45.74,1.72c13.75-4.8,30.26.73,39.06,13.1,9.43,13.25,8.98,31.04-3.22,42.91-5.45,5.3-14.33,7.07-21.65,10.45Zm-29.62-34.63c-.11,15.45,10.47,26.91,25.12,27.2,15.76.32,28.28-11.41,28.42-26.63.12-13.05-13.72-26.33-28.01-26.85-13.13-.48-25.44,12.18-25.54,26.28Z"/>
    <path class="cls-24" d="m289.28,106.58c-2.36.23-4.73.47-7.09.7,1.39-6.55,2.79-13.1,4.34-20.37-.87-1.29-2.6-4.22-4.7-6.86-2.23-2.79-4.81-5.31-7.23-7.94-2.46,3.17-6.62,6.13-7.06,9.56-1.13,8.95-.64,18.11-.79,27.18-2.9-1.81-5.8-3.62-8.7-5.42-11.5-19.81-12.39-26.84,1.23-34.83,7.74-4.54,19.88-4.57,29.21-2.64,10.42,2.16,16.5,12.29,15.84,22.8-.35,5.63-6.66,10.9-10.28,16.33-1.59.5-3.19,1-4.78,1.5Z"/>
    <path class="cls-3" d="m287.35,159.88c.11-9.52.07-19.05.56-28.55.05-.94,3.31-1.72,5.08-2.57,2.99.1,5.98.2,8.97.3,6.88,1.14,13.76,2.28,20.64,3.42,2.94.49,5.88.97,9.12,1.51-.28,6.13-.53,11.55-.79,16.97-.55,3.67-1.1,7.35-1.65,11.02-13.98-.7-27.96-1.4-41.95-2.09Z"/>
    <path class="cls-13" d="m479.43,260.23c16.46-42.24,72.05-50.1,97.99-5.56,1.35,11.18,2.71,22.37,4.06,33.55-1.84,1.24-3.69,2.48-7.66,5.15.9-5.54,1.35-8.33,1.79-11.11-.24-29.28-18.75-49.74-45.03-49.77-27.05-.03-45.38,19.93-45.6,49.67-2.39,3.04-4.79,6.08-7.18,9.12.54-10.35,1.09-20.7,1.63-31.05Z"/>
    <path class="cls-17" d="m107.9,121.73c2.5,0,5,0,7.5.01-.02,50.77.03,101.53-.21,152.3-.02,3.29-2.31,6.56-3.55,9.84-1.23-3.28-3.52-6.56-3.53-9.85-.24-50.77-.19-101.53-.21-152.3Z"/>
    <path class="cls-6" d="m479.43,260.23c-.54,10.35-1.09,20.7-1.63,31.05-10.61.08-21.22.16-31.83.25-.68-10.33-1.36-20.67-2.04-31,11.83-.1,23.67-.2,35.51-.3Z"/>
    <path class="cls-13" d="m163.37,260.2c14.33-33.23,49.47-45.1,79.31-26.98,1.24.75,2.9.8,4.37,1.17,1.29,4.32,2.57,8.64,3.86,12.95-1.92-.82-4.21-1.22-5.69-2.53-15.39-13.58-32.97-16.85-51.02-7.76-17.8,8.97-26.66,24.59-25.29,45.11-1.8,3.06-3.59,6.13-5.39,9.19-.05-10.39-.1-20.78-.14-31.16Z"/>
    <path class="cls-2" d="m259.6,129.23c-.7,4.79-1.4,9.58-2.11,14.37-3.64,2.83-7.29,5.66-10.93,8.48-3.77,4.52-7.54,9.04-11.32,13.56-1.56.91-3.01,2.2-4.69,2.67-4.98,1.4-10.05,2.49-15.08,3.7,1.02-5.72,1.97-11.46,3.11-17.16.22-1.12,1.14-2.1,1.75-3.15.76-.78,1.52-1.56,2.28-2.34,0,0-.07.07-.07.07.63-.63,1.26-1.26,1.89-1.9,0,0-.03.05-.03.05,8.71-6.18,17.43-12.36,26.14-18.55,3.02.06,6.04.12,9.06.18Z"/>
    <path class="cls-21" d="m484.98,282.16c.21-29.73,18.54-49.7,45.6-49.67,26.28.03,44.79,20.49,45.03,49.77-2.48,0-4.95,0-7.43.01.06-25.67-15.29-43.57-37.67-43.93-21.83-.35-38.93,18.3-40.02,43.64-1.84.06-3.67.12-5.51.18Z"/>
    <path class="cls-21" d="m168.9,282.17c-1.37-20.53,7.49-36.14,25.29-45.11,18.05-9.1,35.64-5.82,51.02,7.76,1.48,1.31,3.77,1.71,5.69,2.53,1.57,11.65,3.14,23.3,4.7,34.95-1.17,0-2.34,0-3.51-.01.06-26.24-14.27-42.62-38.12-43.59-21.2-.86-38.45,18-39.58,43.27-1.84.07-3.67.14-5.51.21Z"/>
    <path class="cls-9" d="m144.56,221.51c10.49,1.32,20.98,2.63,34.08,4.28-12.93,14.44-24.34,22.99-41.13,19.62,2.57-7.9-6.27-19.16,7.05-23.89Z"/>
    <path class="cls-9" d="m588.41,230.82c-18.18-6.68-21.21-9.66-27.61-28.3,8-2.33,15.99-4.66,23.97-6.99,1.21,11.76,2.43,23.52,3.64,35.28Z"/>
    <path class="cls-6" d="m581.48,288.22c-1.35-11.18-2.7-22.37-4.06-33.55,6.83-5.55,13.65-11.1,20.48-16.66,6.03,18.78-1.38,41.41-16.42,50.21Z"/>
    <path class="cls-6" d="m163.37,260.2c.05,10.39.09,20.78.14,31.16-10.58-4.14-21.16-8.28-31.74-12.42,6.61,1.13,13.22,2.25,19.84,3.38.31-1.43.63-2.86.94-4.3-5.94-2.1-11.88-4.21-17.36-6.15,5.74-.7,11.32-1.39,16.9-2.07-5.84-3.2-11.65-6.44-17.53-9.56-.73-.39-1.8-.14-2.72-.18.08-3.65.15-7.29.23-10.94,10.43,3.7,20.86,7.39,31.29,11.09Z"/>
    <path class="cls-7" d="m465.43,142.76c.67,2.36,1.33,4.71,2,7.07.45,1.74.9,3.48,1.36,5.23-.08,1.18-.16,2.37-.24,3.55-10.5-11.13-21-22.26-31.49-33.39-.77-5.79-1.55-11.57-2.51-18.78,6.47,1.65,11.03,2.81,15.6,3.97,0,0-.07,0-.07,0,.57.7,1.13,1.39,1.7,2.09,0,0-.05-.08-.05-.08.57,1.34,1.14,2.69,1.71,4.03,4,8.77,8,17.54,12,26.31Z"/>
    <path class="cls-2" d="m399.81,77.85c3.78-4.42,6.33-5.38,8.03,1.78,1.25,5.27,3.93,10.2,8.18,14.74.37-3.63.74-7.27,1.11-10.9l2.32-.61c2.04,7.37,4.07,14.73,6.1,22.1-4.57,4.88-9.14,9.76-13.76,14.69-2.16-5.85-4.03-10.93-5.9-16.01-1.78-.81-3.56-1.62-5.34-2.42-.24-7.79-.49-15.58-.73-23.37Z"/>
    <path class="cls-4" d="m412.74,337.19c5.57.14,11.14.27,16.71.41.28,4.91.56,9.82.83,14.73-2.09,1.21-4.19,2.41-6.28,3.62-8.93-1.14-17.83-2.77-26.79-3.21-3.94-.19-7.99,2.06-12,3.2-.72-1.15-1.44-2.3-2.16-3.44,3.29-1.79,6.78-3.29,9.82-5.44,4.57-3.22,8.82-6.9,13.21-10.38,0,0,.53-.27.53-.27,0,0,.59.06.59.06.69.28,1.39.56,2.09.84,1.14-.04,2.29-.08,3.43-.12Z"/>
    <path class="cls-22" d="m90.78,305.72c1.45,4.93,2.9,9.86,4.34,14.8-13.02.05-26.03.1-39.05.16,2.01-4.8,4.03-9.6,6.04-14.4,9.55-.19,19.11-.37,28.67-.56Z"/>
    <path class="cls-22" d="m42.02,289.8c1.63,4.94,3.25,9.89,4.88,14.83-12.9.01-25.8.03-38.7.04,1.7-4.96,3.39-9.92,5.09-14.88,9.58,0,19.15,0,28.73.01Z"/>
    <path class="cls-3" d="m90.78,305.72c-9.56.19-19.11.37-28.67.56,1.7-5.57,3.4-11.15,5.09-16.72,6.16.11,12.33.22,18.49.34,1.69,5.28,3.39,10.55,5.08,15.83Z"/>
    <path class="cls-7" d="m250.54,129.05c-8.71,6.18-17.43,12.36-26.14,18.55,5.87-14.3,9.35-30.28,26.03-36.97.04,6.14.07,12.29.11,18.43Z"/>
    <path class="cls-7" d="m322.61,132.47c-6.88-1.14-13.76-2.28-20.64-3.42-1.25-7.92-2.49-15.84-3.74-23.77,12.78-.67,16.71,8.5,20.32,18.13,1.16,3.09,2.7,6.04,4.06,9.05Z"/>
    <path class="cls-3" d="m42.02,289.8c-9.58,0-19.15,0-28.73-.01,1.93-5.1,3.86-10.21,5.79-15.31,6.18.21,12.36.42,18.55.63,1.46,4.9,2.93,9.8,4.39,14.69Z"/>
    <path class="cls-19" d="m375.87,140.13c-.25,3.05-.49,6.09-.74,9.14-10.91,2.56-21.75,5.57-32.79,7.35-2.71.44-6.06-3.11-9.11-4.83,14.21-3.89,28.42-7.77,42.64-11.66Z"/>
    <path class="cls-3" d="m8.2,304.67c12.9-.01,25.8-.03,38.7-.04,2.23,1.64,4.46,3.28,9.09,6.67H0c4.04-3.27,6.12-4.95,8.2-6.63Z"/>
    <path class="cls-21" d="m131.85,260.05c.91.05,1.99-.2,2.72.18,5.88,3.12,11.7,6.36,17.53,9.56-5.58.69-11.17,1.37-16.9,2.07,5.48,1.94,11.42,4.05,17.36,6.15-.31,1.43-.63,2.86-.94,4.3-6.61-1.13-13.22-2.26-19.84-3.38.02-6.29.05-12.59.07-18.89Z"/>
    <path class="cls-3" d="m246.57,152.09c3.64-2.83,7.29-5.65,10.93-8.48-5.55,13.3-11.09,26.6-16.64,39.9-1.29-2.08-2.57-4.16-3.85-6.24,3.19-8.39,6.38-16.78,9.56-25.17Z"/>
    <path class="cls-20" d="m333.24,151.79c3.06,1.72,6.41,5.27,9.11,4.83,11.04-1.79,21.88-4.8,32.79-7.35-.11,2.05-.22,4.1-.33,6.14,0,0-.72-.01-.72-.01-18.4-1.86-33.97,5.19-36.06,16.31-2.91-3.24-5.82-6.49-8.73-9.73.55-3.67,1.1-7.35,1.65-11.02.76.28,1.53.56,2.29.84Z"/>
    <path class="cls-3" d="m56.08,320.67c13.02-.05,26.03-.1,39.05-.16,2.07,1.21,4.14,2.41,9.63,5.61h-55.97c3.56-2.66,5.42-4.06,7.29-5.46Z"/>
    <path class="cls-4" d="m274.18,354.39c-.45-.59-.91-1.18-1.36-1.76,1.74-3.13,3.48-6.25,5.21-9.38,6.59-.12,13.18-.24,19.78-.36.79,3.21,1.58,6.43,2.36,9.64-.14.7-.28,1.39-.42,2.09-8.53-.08-17.05-.16-25.58-.24Z"/>
    <path class="cls-3" d="m450.14,110.41c-4.56-1.16-9.13-2.32-15.6-3.97.96,7.21,1.74,13,2.51,18.78-2.94-.2-5.88-.39-8.83-.59-.04-6.38-.07-12.76-.11-19.13,3.9-1.38,7.79-2.76,11.69-4.14,3.44,3.02,6.89,6.03,10.33,9.04Z"/>
    <path class="cls-22" d="m37.63,275.11c-6.18-.21-12.36-.42-18.55-.63,1.42-4.79,2.84-9.59,4.27-14.38,2.81,0,5.63.01,8.45.02,1.95,5,3.89,9.99,5.84,14.99Z"/>
    <path class="cls-22" d="m85.7,289.89c-6.16-.11-12.33-.22-18.49-.34,1.33-4.96,2.66-9.93,3.99-14.89,3.07.11,6.14.22,9.21.34,1.76,4.96,3.52,9.93,5.28,14.89Z"/>
    <path class="cls-3" d="m298.23,105.29c1.25,7.92,2.49,15.84,3.74,23.77-2.99-.1-5.98-.2-8.97-.3-1.24-7.39-2.47-14.78-3.71-22.17,1.6-.5,3.19-1,4.78-1.5,1.39.07,2.77.13,4.16.2Z"/>
    <path class="cls-3" d="m250.54,129.05c-.04-6.14-.07-12.29-.11-18.43,2.44-1.15,4.88-2.3,7.32-3.44.62,7.35,1.24,14.7,1.86,22.05-3.02-.06-6.04-.12-9.06-.18Z"/>
    <path class="cls-3" d="m400.54,101.21c1.78.81,3.56,1.62,5.34,2.42-5.78,8.09-11.56,16.18-17.34,24.27l-1.93-.79c2.65-7.86,5.29-15.72,7.94-23.58,2-.77,4-1.55,6-2.32Z"/>
    <path class="cls-7" d="m246.57,152.09c-3.19,8.39-6.38,16.78-9.56,25.17-.58-3.87-1.17-7.74-1.75-11.61,3.77-4.52,7.54-9.04,11.32-13.57Z"/>
    <path class="cls-3" d="m31.79,260.12c-2.82,0-5.63-.01-8.45-.02.99-4.88,1.99-9.75,2.98-14.63.87,0,1.74,0,2.61,0,.95,4.88,1.9,9.77,2.85,14.65Z"/>
    <path class="cls-3" d="m80.42,275c-3.07-.11-6.14-.22-9.21-.34,1.28-4.56,2.56-9.12,3.84-13.67.75-.07,1.5-.13,2.24-.2,1.04,4.74,2.09,9.47,3.13,14.21Z"/>
    <path class="cls-1" d="m453.43,116.45c-.57-1.34-1.14-2.69-1.71-4.03.57,1.34,1.14,2.69,1.71,4.03Z"/>
    <path class="cls-1" d="m451.77,112.5c-.57-.7-1.13-1.39-1.7-2.09.57.7,1.13,1.39,1.7,2.09Z"/>
    <path class="cls-14" d="m224.44,147.55c-.63.63-1.26,1.26-1.89,1.9.63-.63,1.26-1.26,1.89-1.9Z"/>
    <path class="cls-14" d="m222.61,149.38c-.76.78-1.52,1.56-2.28,2.34.76-.78,1.52-1.56,2.28-2.34Z"/>
    <path class="cls-18" d="m316.77,214.08c.06-5.1.11-10.21.17-15.31,2.24.06,4.49.12,6.73.18,12.22-.45,24.43-.9,36.65-1.36v23.84h13.94c4.8.46,9.6.93,14.4,1.39,1.85,12.48,3.71,24.96,5.56,37.45-22.11-.02-44.22-.04-66.33-.06-3.71-15.37-7.41-30.75-11.12-46.12Z"/>
    <path class="cls-23" d="m406.09,336.68c-4.39,3.48-8.64,7.15-13.21,10.38-3.04,2.14-6.53,3.65-9.82,5.44-4.93.05-9.85.11-14.78.16-6.91-3.29-13.83-6.58-20.74-9.87,1.16-4.66,3.98-9.63,3.16-13.91-2.41-12.56-6.28-24.84-9.57-37.24,20.33-.04,40.65-.08,60.98-.11,1.33,15.05,2.66,30.1,3.99,45.15Z"/>
    <path class="cls-6" d="m402.1,291.53c-20.33.04-40.65.08-60.98.11-4.41-10.48-8.82-20.96-13.23-31.44,22.11.02,44.22.04,66.33.06.63.06,1.25.12,1.87.18,2,10.36,4.01,20.72,6.01,31.08Z"/>
    <path class="cls-5" d="m300.18,352.54c-.79-3.21-1.57-6.43-2.36-9.64.99-5.01,3.4-10.22,2.71-14.98-1.78-12.21-4.94-24.23-7.55-36.32,4.19,0,8.38,0,12.58,0,3.83,12.56,6.88,25.45,11.85,37.54,2.23,5.43,8.31,9.28,12.64,13.85-.71,3.19-1.43,6.37-2.14,9.56h-27.72Z"/>
    <path class="cls-18" d="m305.55,291.59c-4.19,0-8.38,0-12.58,0-3.25-13.8-6.5-27.59-9.75-41.39,2.14-.66,4.28-1.33,6.43-1.99,5.3,14.46,10.6,28.92,15.9,43.38Z"/>
    <path class="cls-4" d="m327.9,352.54c.71-3.19,1.43-6.37,2.14-9.56,5.83-.06,11.67-.13,17.5-.19,6.91,3.29,13.83,6.58,20.74,9.87-.21.59-.41,1.18-.62,1.77-13.11.07-26.21.14-39.32.21-.15-.7-.3-1.4-.44-2.1Z"/>
    <path class="cls-7" d="m396.1,260.45c-.62-.06-1.25-.12-1.87-.18-1.86-12.48-3.71-24.96-5.56-37.45-.45-2.36-.9-4.72-1.34-7.08-.04-11.75-.08-23.49-.12-35.24,17.49-.17,34.97-.34,52.46-.51,1.01,2.68,2.02,5.36,3.03,8.05.58,1.28,1.16,2.57,1.74,3.85,5.44,11.65,4.59,22.75.79,35.23-3.17,10.43-1.21,22.43-1.52,33.74-11.55.19-23.1.39-34.65.58-4.32-.33-8.64-.66-12.97-.98Z"/>
    <path class="cls-21" d="m444.44,191.89c-.58-1.28-1.16-2.57-1.75-3.85,16.98-1.01,33.97-2.03,52.27-3.12-3.3-7.12-6.03-11.63-7.53-16.52-2.89-9.43-7.15-16.23-18.64-13.36-.45-1.74-.9-3.48-1.36-5.23,29.22-4.13,49.11,11.05,69.41,35.69-32.66,2.25-62.53,4.31-92.4,6.37Z"/>
    <path class="cls-13" d="m502.93,209.06h-24.53c-.04-.85-.08-1.7-.11-2.55h24.41c.08.85.16,1.7.23,2.55Z"/>
    <path class="cls-2" d="m329.3,161.97c2.91,3.24,5.82,6.49,8.72,9.73-3.97,2.47-7.94,4.95-11.92,7.42-14.76-.85-29.53-1.71-44.29-2.56-4.87-7.78-1.19-12.74,5.53-16.69,13.98.7,27.96,1.39,41.95,2.09Z"/>
    <path class="cls-3" d="m281.82,176.56c14.76.85,29.53,1.71,44.29,2.56-.53,4.82-1.06,9.64-1.59,14.47-.28,1.79-.56,3.57-.84,5.36-2.24-.06-4.49-.12-6.73-.18-12.01-1.94-24.03-3.88-37.31-6.02.75-5.57,1.47-10.88,2.19-16.19Z"/>
    <path class="cls-2" d="m266.75,108.86c.15-9.07-.34-18.23.79-27.18.43-3.43,4.6-6.39,7.06-9.56,2.43,2.63,5.01,5.15,7.23,7.94,2.1,2.64,3.83,5.57,4.7,6.86-1.55,7.27-2.95,13.82-4.34,20.37-4.43,7.49-9.37,10.06-15.44,1.57Z"/>
    <path class="cls-3" d="m387.2,180.51c.04,11.75.08,23.49.12,35.23-4.35,1.89-8.7,3.79-13.05,5.69h-13.94c0-8.35,0-16.09,0-23.84-.15-1.93-.3-3.85-.45-5.78v-19.61c4.35-.27,7.96-.5,11.56-.73,5.1.13,10.19.26,15.29.4.16,2.88.32,5.76.48,8.64Z"/>
    <path class="cls-17" d="m468.78,155.06c11.49-2.87,15.75,3.92,18.64,13.36,1.5,4.89,4.23,9.4,7.53,16.52-18.29,1.09-35.28,2.1-52.27,3.12-1.01-2.68-2.02-5.36-3.03-8.05.36-.79.72-1.57,1.08-2.36,5.22-2.35,10.44-4.71,15.66-7.06,3.9.77,7.8,1.54,11.7,2.31.57-4.21,1.13-8.42,1.7-12.63-.46-.6-.93-1.19-1.39-1.79l.15.14c.08-1.18.16-2.37.24-3.55Z"/>
    <path class="cls-2" d="m469.79,160.26c-.57,4.21-1.13,8.42-1.7,12.63-3.9-.77-7.8-1.54-11.7-2.31-3.47-3.75-7.26-7.27-10.34-11.33-4.64-6.12-8.79-12.62-13.14-18.96-8.08-3.27-7.77-9.06-4.7-15.67,2.95.2,5.89.39,8.83.59,10.5,11.13,21,22.26,31.49,33.39,0,0-.15-.14-.15-.14.46.6.93,1.19,1.39,1.79Z"/>
    <path class="cls-3" d="m432.92,140.31c4.36,6.34,8.5,12.84,13.14,18.96,3.08,4.06,6.87,7.57,10.34,11.33-5.22,2.35-10.44,4.7-15.66,7.06,6.43-14.33-7.05-24.51-7.82-37.34Z"/>
    <path class="cls-2" d="m386.72,171.87c-5.1-.13-10.19-.26-15.29-.4.88-5.36,1.77-10.72,2.65-16.08,0,0,.72,0,.72.01,4.68,4.98,16.29,4.95,11.92,16.47Z"/>
    <path class="cls-7" d="m385.22,355.94c4-1.14,8.06-3.39,12-3.2,8.96.43,17.86,2.06,26.79,3.21-12.93,0-25.86,0-38.79,0Z"/>
    <path class="cls-7" d="m328.34,354.63c13.11-.07,26.21-.14,39.32-.21-9,1.19-17.97,2.88-27.01,3.35-4.04.21-8.2-2.02-12.31-3.14Z"/>
    <path class="cls-25" d="m274.18,354.39c8.53.08,17.05.16,25.58.24-8.53-.08-17.05-.16-25.58-.24Z"/>
    <path class="cls-17" d="m187.35,276.59c.08-15.23,10.79-25.71,26.25-25.7,15.33.01,27.44,11.51,27.44,26.05,0,16.11-11.94,27.83-28.13,27.59-14.4-.21-25.65-12.5-25.56-27.94Zm33.39,3.96c-4.34,0-8.68,0-13.02,0,3.1-3.1,6.2-6.2,9.29-9.29,4.69-1.48,9.37-2.97,14.06-4.45-1.08-2.88-2.15-5.75-4.06-10.84-4.49,6.86-7.27,11.12-10.05,15.38.51-5.06,1.02-10.13,1.61-15.96h-10.31c1.21,5.15,2.24,9.51,4.26,18.06-5.23-7.61-7.89-11.48-11.25-16.37-2.85,3.16-4.88,5.42-7.09,7.86,3.97,3.21,6.99,5.64,10,8.08l-.22.26c-3.88-.3-7.75-.59-12.07-.92v9.78c5.85-.6,10.88-1.12,15.92-1.63-4.27,2.77-8.53,5.54-13.27,8.63,9.52,13.71,11.17-1.31,14.04-2.94,1.88,5.01,3.67,9.79,5.46,14.57,1.79-4.69,3.59-9.37,5.2-13.6,1.46,2.08,4.01,5.72,7.81,11.13,2.59-2.84,4.7-5.15,7.45-8.17-5.47-3.8-9.65-6.71-13.83-9.62,5.05.51,10.1,1.02,18.94,1.91-3.42-4.58-6.1-9.19-6.77-8.92-4.28,1.76-8.11,4.59-12.09,7.08Z"/>
    <path class="cls-17" d="m503.41,277.13c-.02-16.29,10.1-26.31,26.5-26.25,15.26.06,27.32,11.74,27.2,26.34-.13,15.72-11.78,27.26-27.55,27.3-14.55.04-26.13-12.09-26.15-27.39Zm22.28-9.53c-2.65-3.1-5.3-6.2-8.65-10.13-2.51,2.69-4.56,4.89-6.65,7.13,11.73,9.91,12.89,10.09,15.27,2.96,2.48.61,4.96,1.22,7.44,1.83,1.23,3.72,2.47,7.43,3.7,11.15-1.23,1.23-2.47,2.46-3.7,3.7-3.72-1.23-7.44-2.46-11.16-3.7-3.9-3.45-7.79-6.89-14.02-12.41v14.05c5.23-.63,9.66-1.16,14.09-1.69-3.65,2.98-7.29,5.96-13.23,10.81,5.09,1.39,8.92,3.73,10.82,2.66,2.86-1.61,4.37-5.61,7.76-10.47-2.82,17.27-2.58,17.71,7.2,15.86-.5-5.02-1.01-10.1-1.51-15.18,3.05,4.29,6.11,8.57,9.64,13.53,2.85-3.17,4.8-5.33,7.24-8.03-4.86-3.38-9.03-6.28-13.2-9.18,5.09.51,10.17,1.01,16.35,1.63.88-14.71-10.03-6.13-15.34-7.97,12.77-10.17,12.78-10.22,3.77-15.16-2.81,3.49-5.63,6.98-8.46,10.48.53-4.43,1.06-8.85,1.69-14.07h-9.8c.27,4.43.51,8.32.75,12.21Z"/>
    <path class="cls-11" d="m396.1,260.45c4.32.33,8.64.66,12.97.98,1.91,13.97,4.67,27.89,5.47,41.92.64,11.21-1.11,22.55-1.8,33.83-1.15.04-2.29.08-3.43.12-.7-.28-1.39-.56-2.08-.84l-.59-.06s-.53.27-.53.27c-1.33-15.05-2.66-30.1-3.99-45.15-2-10.36-4.01-20.72-6.01-31.08Z"/>
    <path class="cls-8" d="m133.82,92.7q0,21.61-21.81,21.61-22.55,0-22.55-22.71,0-21.61,21.81-21.61,22.55,0,22.55,22.71Z"/>
    <path class="cls-8" d="m30.31,33.54c.1-14.1,12.41-26.76,25.54-26.28,14.29.52,28.13,13.8,28.01,26.85-.14,15.22-12.67,26.95-28.42,26.63-14.65-.3-25.24-11.76-25.12-27.2Z"/>
    <path class="cls-12" d="m407.22,336.47c.69.28,1.39.56,2.08.84-.69-.28-1.39-.56-2.08-.84Z"/>
    <path class="cls-9" d="m374.09,155.39c-.88,5.36-1.77,10.72-2.65,16.08-3.6.23-7.21.45-11.56.73,0,6.59,0,13.1,0,19.61-11.79.59-23.57,1.19-35.36,1.78.53-4.82,1.06-9.64,1.59-14.47,3.97-2.48,7.94-4.95,11.92-7.42,2.09-11.12,17.66-18.16,36.06-16.3Z"/>
    <path class="cls-20" d="m324.52,193.59c11.78-.59,23.57-1.18,35.36-1.78.15,1.93.3,3.85.45,5.78-12.22.45-24.43.9-36.65,1.36.28-1.79.56-3.57.84-5.36Z"/>
    <path class="cls-2" d="m374.26,221.43c4.35-1.9,8.7-3.79,13.05-5.69.45,2.36.9,4.72,1.35,7.08-4.8-.46-9.6-.93-14.4-1.39Z"/>
    <path class="cls-12" d="m469.79,160.26c-.46-.6-.93-1.19-1.39-1.79.46.6.93,1.19,1.39,1.79Z"/>
    <path class="cls-16" d="m217.02,271.25c-3.1,3.1-6.2,6.2-9.29,9.29,0,0,.09-.06.09-.06-5.04.52-10.08,1.03-15.92,1.63v-9.78c4.32.33,8.2.62,12.07.92.71.44,1.42.88-.97-.6,2.78.81,1.98.58,1.19.35-3.01-2.43-6.03-4.87-10-8.08,2.2-2.44,4.24-4.7,7.09-7.86,3.36,4.89,6.02,8.76,11.25,16.37-2.02-8.55-3.04-12.91-4.26-18.06h10.31c-.59,5.83-1.1,10.9-1.61,15.96l.05-.08Z"/>
    <path class="cls-16" d="m220.66,280.48c4.18,2.91,8.37,5.82,13.83,9.62-2.75,3.02-4.86,5.33-7.45,8.17-3.8-5.42-6.35-9.05-7.81-11.13-1.61,4.22-3.41,8.91-5.2,13.6-1.79-4.78-3.58-9.55-5.46-14.57-2.87,1.63-4.52,16.65-14.04,2.94,4.74-3.08,9.01-5.85,13.27-8.63,0,0-.09.06-.09.06,4.34,0,8.68,0,13.02,0l-.08-.07Z"/>
    <path class="cls-16" d="m220.74,280.55c3.98-2.48,7.81-5.32,12.09-7.08.67-.28,3.35,4.33,6.77,8.92-8.84-.89-13.89-1.4-18.94-1.91,0,0,.08.07.08.07Z"/>
    <path class="cls-16" d="m216.97,271.33c2.78-4.26,5.57-8.52,10.05-15.38,1.9,5.09,2.98,7.97,4.06,10.84-4.69,1.48-9.37,2.97-14.06,4.45,0,0-.05.08-.05.08Z"/>
    <path class="cls-16" d="m533.05,269.46c2.82-3.5,5.64-7,8.46-10.48,9.01,4.95,9,5-3.77,15.16,5.31,1.84,16.22-6.74,15.34,7.97-6.18-.62-11.27-1.12-16.35-1.63,0,0,.08.06.08.06-1.23-3.72-2.47-7.43-3.7-11.15,0,0-.06.07-.06.07Z"/>
    <path class="cls-16" d="m521.95,280.54c3.72,1.23,7.44,2.46,11.16,3.7l-.06-.08c.51,5.08,1.01,10.16,1.51,15.18-9.78,1.85-10.02,1.41-7.2-15.86-3.39,4.86-4.9,8.86-7.76,10.47-1.9,1.07-5.73-1.27-10.82-2.66,5.94-4.85,9.59-7.83,13.23-10.81l-.07.06Z"/>
    <path class="cls-16" d="m533.11,284.24c1.23-1.23,2.47-2.46,3.7-3.7,0,0-.08-.06-.08-.06,4.17,2.9,8.34,5.8,13.2,9.18-2.43,2.7-4.38,4.86-7.24,8.03-3.53-4.96-6.59-9.24-9.64-13.53,0,0,.06.08.06.08Z"/>
    <path class="cls-16" d="m525.67,267.56c-2.38,7.13-3.54,6.96-15.27-2.96,2.09-2.24,4.15-4.45,6.65-7.13,3.35,3.92,6,7.03,8.65,10.13l-.03-.04Z"/>
    <path class="cls-16" d="m533.1,269.39c-2.48-.61-4.96-1.22-7.44-1.83,0,0,.03.04.03.04-.24-3.89-.48-7.78-.75-12.21h9.8c-.63,5.22-1.16,9.65-1.69,14.07,0,0,.06-.07.06-.07Z"/>
    <path class="cls-16" d="m522.01,280.48c-4.43.53-8.86,1.07-14.09,1.69v-14.05c6.23,5.51,10.13,8.96,14.02,12.41,0,0,.07-.06.07-.06Z"/>
    <path class="cls-17" d="m204.18,273c.79.23,1.58.46-1.19-.35,2.4,1.48,1.68,1.04.97.6,0,0,.22-.26.22-.26Z"/>
  </g>
</svg>