<?xml version="1.0" encoding="UTF-8"?>
<svg id="Calque_2" data-name="Calque 2" xmlns="http://www.w3.org/2000/svg" viewBox="0 0 600 450.95">
  <defs>
    <style>
      .cls-1 {
        fill: #fbfbff;
      }

      .cls-1, .cls-2, .cls-3, .cls-4, .cls-5, .cls-6, .cls-7 {
        stroke-width: 0px;
      }

      .cls-2 {
        fill: #eaeafb;
      }

      .cls-3 {
        fill: #9694eb;
      }

      .cls-4 {
        fill: #9594c1;
      }

      .cls-5 {
        fill: #7a79b2;
      }

      .cls-6 {
        fill: #d5d4f7;
      }

      .cls-7 {
        fill: #2d0e30;
      }
    </style>
  </defs>
  <g id="contact">
    <path class="cls-4" d="m98.59,374.47c-1.93,11.34-.41,22.78-.87,34.16-.66,16.26-5.11,30.92-17.51,42.32h-35.96c-12.58-10.4-16.94-24.56-17.77-40.05-.64-12.11-.47-24.26-.67-36.39,24.26-.01,48.51-.02,72.77-.04Z"/>
    <path class="cls-4" d="m465.97,450.95c-13.51-9.46-17.45-23.6-18.3-38.84-.69-12.42-.36-24.89-.49-37.34,23.86-1.02,47.73-.6,71.6-.22-.15,12.43.12,24.87-.57,37.27-.85,15.23-5.23,29.15-17.91,39.13h-34.33Z"/>
    <path class="cls-6" d="m600,57.38h-18.7c3.8,3.86,9.72,2.49,12.14,8.03-11.08-2.98-21.88-2.19-32.6.51-4.51-5.66-9.03-11.33-13.54-16.99,6.76-7.59,13.53-15.18,20.51-23.02,2.91,4.11.78,6.33-1.08,8.62-1.15,1.42-3.14,2.77-1.75,4.86,1.56,2.34,3.78,1.19,5.87.54,5.18-1.59,10.39-3.07,15.58-4.63,1.79-.54,4.22-1.75,5.05.38,1.16,3-2.16,3.07-3.9,3.89-3.11,1.47-6.33,2.7-10.5,4.45,7.44,3.23,14.46-2.62,21.38,1.3-3.87,5.23-10.54,2.55-15.84,5.76,6.13,2.56,12.38-.35,17.41,3.02v3.27Z"/>
    <path class="cls-4" d="m511.68,177.55c8.47,8.32,11.53,18.85,11.56,30.26.12,46.19.02,92.39,0,138.58-18.67,1.54-37.33,3.09-56,4.63-2.13-3.7-4.29-7.37-7.47-10.3-1.47-2.4-2.94-4.79-4.41-7.19-2.33-2.97-4.65-5.94-6.98-8.9-.86-2.34-1.76-4.64-3.97-6.1-1.88-3.8-4.03-7.4-7.41-10.09-1.14-2.04-2.28-4.08-3.42-6.11-6.88-9.79-13.76-19.57-20.64-29.36-9.11-13.2-18.15-26.45-27.36-39.58-4.51-6.43-10.81-9.58-18.8-9.57-62.88.05-125.76.05-188.63,0-8,0-14.27,3.13-18.79,9.56-9.21,13.13-18.27,26.36-27.39,39.55-6.92,9.79-13.84,19.59-20.76,29.38-1.99,1.6-2.74,3.9-3.54,6.18-3.28,2.65-5.12,6.39-7.39,9.81-1.33,2.13-2.67,4.26-4,6.4-2.24,2.96-4.47,5.91-6.71,8.87-1.56,2.43-3.11,4.86-4.67,7.29-2.22,2.97-4.43,5.94-6.65,8.9-19.04.89-37.81-2.9-56.77-3.27-.03-46.1-.14-92.19-.03-138.29.03-13.55,5.07-25.26,14.66-34.93-2.53,11.83-.98,23.85-1.66,35.76-.3,5.35,2.81,5.44,6.69,5.43,22.59-.07,45.19-.15,67.78.02,7.33.05,12.64-3.13,16.29-9.03,4.86-7.85,9.3-15.96,13.92-23.95,16.65,1.88,32.97,5.84,50.03,5.13,20.93-.88,41.93-.03,62.9.06-.67,4.51-2.14,8.83-1.97,13.54.39,10.63,8.04,18.8,18.17,18.81,10.95,0,18.95-7.82,19.68-18.5.36-5.21-2.2-9.35-3.53-13.96,29.24-.06,58.49-.12,87.73-.19,4.04-.01,8.04-.74,12.02-1.08,8.09-.69,15.82-6.45,24.29-2.05,4.42,7.48,8.8,14.98,13.28,22.43,3.3,5.5,8.01,8.73,14.65,8.72,23.11,0,46.23-.12,69.34.12,5.29.05,6.39-2.16,6.24-6.82-.3-10.04-.2-20.1-.27-30.15Z"/>
    <path class="cls-2" d="m58.68,138.96c10.73-39.34,25.92-76.79,47.34-111.6,3.53.15,7.05.44,10.58.44,83.85.03,167.7.01,251.55.04,3.25,0,6.49.35,9.74.54-5.43,10-5.01,20.4-3.82,31.45,1.65,15.22.84,15.31,15.09,19.43-1.38,4.86-2.76,9.72-4.14,14.58-15.72.3-30.88,3.86-45.86,8.21-3.68,1.07-6.62,3.86-8.5,7.24-3.79,6.84-7.29,13.85-10.92,20.78-3.24.17-6.49.48-9.73.48-34.22.04-68.45.11-102.67-.01-20.38-.07-40.66,1.26-60.97,2.79-29.21,2.19-58.46,3.78-87.69,5.62Z"/>
    <path class="cls-5" d="m58.68,138.96c29.23-1.84,58.49-3.43,87.69-5.62,20.31-1.52,40.59-2.86,60.97-2.79,34.22.12,68.45.05,102.67.01,3.24,0,6.49-.32,9.74-.48,6.26,1.2,12.55.7,18.84.38,2.1,0,4.19-.01,6.29-.02,17.92.75,35.84,1.5,53.76,2.25,1.93,1.95,4.35,1.43,6.69,1.33,8.31.46,16.61.92,24.92,1.37,2.18.1,4.35.2,6.53.31,2.15.03,4.31.05,6.46.08,14.28,2.11,28.62,3.37,43.07,3.15,3.68-.63,2.65-3.55,2.66-5.78.05-7.59-.06-15.18-.11-22.76.79-14.03,5.79-18.79,19.75-18.86,8.97-.04,17.94-.13,26.91-.19,15.76,16.53,9.81,40.01-12.56,46.1-9.65,2.63-16.98,12.44-29.19,7.2,1.96,8.35,8.32,12.21,9.42,18.77-31.12,3.98-61.62,11.45-92.5,16.75-1.52.26-1.93,1.74-2.24,3.09-8.48-4.4-16.2,1.36-24.29,2.05-3.98.34-7.98,1.07-12.02,1.08-29.24.07-58.49.13-87.73.19-6.66-4.08-13.14-9.13-21.67-5.45-3.68,1.59-7.13,3.69-10.69,5.57-20.97-.1-41.97-.94-62.9-.06-17.06.71-33.38-3.24-50.03-5.13-12.89-2.72-25.76-5.52-38.68-8.14-19.23-3.89-38.5-7.66-57.75-11.48,3.02-5.03,6.04-10.06,10.12-16.88-14.95,3.8-24.4-5.85-35.73-9.26C5.18,132.16-1.6,117.49.32,105.26c1.32-8.41,6.92-13.46,15.6-13.69,7.61-.2,15.24-.15,22.86-.03,10.7.16,16.53,5.84,16.85,16.66.24,8.15-.04,16.31.12,24.47.05,2.38-1.44,5.8,2.93,6.3Z"/>
    <path class="cls-5" d="m467.25,351.02c18.67-1.54,37.33-3.09,56-4.63,4.28,4.6,6.28,20.1,3.31,25-1.85,3.04-4.71,3.29-7.79,3.17-23.87-.38-47.73-.8-71.6.22-52.79-.06-105.58-.14-158.37-.18-63.4-.05-126.81-.08-190.21-.11-24.26.01-48.51.02-72.77.04-6.37.54-8.92-2.92-8.35-8.69.65-6.55-2.92-14.06,3.99-19.34,18.97.37,37.74,4.16,56.77,3.27.95.46,1.88,1.26,2.85,1.33,22.74,1.74,45.5,4.97,68.23,4.8,105.99-.81,212.08,4.71,317.93-4.86Z"/>
    <path class="cls-5" d="m377.88,28.39c-3.25-.19-6.49-.54-9.74-.54-83.85-.03-167.7-.02-251.55-.04-3.53,0-7.05-.29-10.58-.44,7.45-13.35,20.29-16.61,34.09-18.94C199.75-1.69,259.9-.04,320,.32c31.87.19,63.32,5.13,94.72,10.01,10.24,1.59,18.56,7.34,23.72,16.81-3.37.35-6.75.7-10.12,1.04-16.81-.53-33.63-.9-50.43.21Z"/>
    <path class="cls-3" d="m443.23,135.78c-2.15-.03-4.31-.05-6.47-.08.12-3.27-2.07-5.51-3.64-7.99-5.05-7.97-12.67-13.26-19.96-18.88,1.78-5.67,3.73-11.29,5.28-17.03,1.04-3.88,2.56-5.6,6.85-3.88,5.52,2.22,9.47.48,10.98-5.59,9.55-1.43,19.37-.86,28.74-3.72,16.16.27,32.06.59,46.53-9.19,11.35-7.67,23.8-13.72,35.76-20.49,4.51,5.66,9.03,11.32,13.54,16.99-8.44,8.48-16.88,16.95-25.33,25.43-8.97.06-17.94.15-26.91.19-13.96.06-18.96,4.82-19.75,18.86-3.42,1.1-7.34.04-10.47,2.42-16.74-.02-32.46,1.52-35.16,22.97Z"/>
    <path class="cls-1" d="m42.7,161.88c19.25,3.82,38.51,7.58,57.75,11.48,12.91,2.61,25.78,5.42,38.68,8.14-4.62,8-9.06,16.11-13.92,23.95-3.65,5.9-8.96,9.08-16.29,9.03-22.59-.17-45.19-.09-67.78-.02-3.88.01-6.99-.08-6.69-5.43.68-11.91-.88-23.93,1.66-35.76.57-4.74,3.64-8.03,6.6-11.38Z"/>
    <path class="cls-2" d="m465.01,78.62c-9.37,2.86-19.18,2.29-28.74,3.72.84-5.08-3.51-11.12,3.16-15.2,1.32-.81-.59-2.9-1.1-4.38,4.63-5.52,5.02-11.06,1.98-17.85-2.93-6.55-6.32-12.34-12-16.72,3.37-.35,6.75-.7,10.12-1.04,10.84,16.14,19.09,33.61,26.57,51.48Z"/>
    <path class="cls-1" d="m408.44,183.25c.32-1.35.72-2.83,2.24-3.09,30.89-5.3,61.38-12.77,92.5-16.75,5.55,3.08,7.68,8.22,8.5,14.14.07,10.05-.03,20.1.27,30.15.14,4.66-.95,6.87-6.24,6.82-23.11-.24-46.22-.12-69.34-.12-6.64,0-11.35-3.23-14.65-8.72-4.48-7.45-8.86-14.95-13.28-22.43Z"/>
    <path class="cls-7" d="m131.96,272.93c9.12-13.19,18.18-26.43,27.39-39.55,4.52-6.44,10.79-9.57,18.79-9.56,62.88.06,125.76.06,188.63,0,7.99,0,14.29,3.14,18.8,9.57,9.21,13.13,18.25,26.38,27.36,39.57-24.19-.04-48.38-.08-72.58-.13-31.17-.12-62.34-.31-93.51-.33-13.54,0-27.07.35-40.61.54-24.76-.04-49.52-.07-74.29-.11Z"/>
    <path class="cls-7" d="m467.25,351.02c-105.85,9.58-211.94,4.05-317.93,4.86-22.73.17-45.49-3.06-68.23-4.8-.98-.07-1.9-.87-2.85-1.33,2.21-2.97,4.43-5.93,6.65-8.9,2.44.14,4.88.41,7.32.41,119.82.02,239.64.02,359.46,0,2.71,0,5.41-.35,8.12-.54,3.18,2.93,5.34,6.6,7.47,10.3Z"/>
    <path class="cls-7" d="m89.55,333.56c2.24-2.96,4.47-5.91,6.71-8.87,1.9.14,3.79.4,5.69.4,113.31.02,226.63.02,339.94,0,2.17,0,4.33-.3,6.5-.47,2.33,2.97,4.65,5.94,6.97,8.9-2.68,1.95-5.77,1.26-8.7,1.26-116.14.03-232.29.03-348.43,0-2.91,0-6.02.82-8.68-1.21Z"/>
    <path class="cls-7" d="m437.01,308.43c3.38,2.7,5.53,6.29,7.41,10.09-113.36.03-226.73.06-340.09.08-1.35,0-2.71-.2-4.06-.31,2.27-3.42,4.11-7.15,7.39-9.81,32.86.06,65.72.12,98.58.18,44.73,0,89.47.02,134.2.02,32.19-.09,64.38-.17,96.57-.26Z"/>
    <path class="cls-5" d="m131.96,272.93c24.76.04,49.52.07,74.29.11-.07,9.82-.15,19.64-.22,29.45-31.61-.06-63.21-.12-94.82-.18,6.92-9.79,13.84-19.59,20.76-29.38Z"/>
    <path class="cls-5" d="m340.36,272.83c24.19.04,48.38.08,72.58.13,6.88,9.79,13.76,19.57,20.64,29.36-30.94.05-61.87.09-92.81.14-.14-9.87-.27-19.75-.41-29.62Z"/>
    <path class="cls-1" d="m89.55,333.56c2.66,2.04,5.77,1.21,8.68,1.21,116.14.04,232.29.04,348.43,0,2.93,0,6.02.69,8.7-1.26,1.47,2.4,2.95,4.8,4.42,7.19-2.7.19-5.41.53-8.11.53-119.82.03-239.64.03-359.46,0-2.44,0-4.88-.27-7.32-.41,1.56-2.43,3.11-4.86,4.67-7.29Z"/>
    <path class="cls-1" d="m100.27,318.29c1.35.11,2.71.31,4.06.31,113.36-.02,226.73-.05,340.09-.08,2.21,1.46,3.11,3.76,3.97,6.1-2.16.16-4.33.47-6.49.47-113.31.02-226.63.02-339.94,0-1.9,0-3.79-.26-5.69-.4,1.33-2.13,2.67-4.26,4-6.4Z"/>
    <path class="cls-1" d="m111.2,302.31c31.61.06,63.21.12,94.82.18.07,2.06.14,4.11.21,6.17-32.86-.06-65.72-.12-98.58-.18.8-2.27,1.55-4.58,3.54-6.18Z"/>
    <path class="cls-1" d="m340.77,302.45c30.94-.05,61.87-.09,92.81-.14,1.14,2.04,2.28,4.08,3.42,6.11-32.19.09-64.38.17-96.57.26.11-2.08.22-4.15.33-6.23Z"/>
    <path class="cls-7" d="m428.31,28.18c5.68,4.38,9.07,10.17,12,16.72,3.03,6.78,2.65,12.33-1.99,17.84-5.03-2.23-3.64-6.74-3.63-10.62,0-6.53-1.94-12.02-6.91-17.39-2.03,6.77,2.54,14.02-3.82,17.2-4.92,2.46-11.4,3.62-16.81,2.83-7.68-1.13-8.91-.92-7.85,6.88.6,4.35,2.53,7.71,6.57,9.58,3.74,1.73,4.43,4.65,3,8.06-1.35,3.21-4.13,2.74-6.96,2.15-4.22-.87-8.51-1.46-12.77-2.17-14.25-4.12-13.44-4.2-15.09-19.43-1.2-11.05-1.61-21.46,3.82-31.45,16.81-1.11,33.62-.73,50.43-.21Z"/>
    <path class="cls-6" d="m389.15,79.27c4.26.71,8.54,1.29,12.77,2.17,2.83.59,5.62,1.05,6.96-2.15,1.43-3.41.74-6.32-3-8.06-4.04-1.87-5.98-5.23-6.57-9.58-1.07-7.8.16-8.01,7.85-6.88,5.41.79,11.89-.37,16.81-2.83,6.36-3.18,1.8-10.43,3.82-17.2,4.97,5.38,6.92,10.86,6.91,17.39,0,3.88-1.39,8.39,3.63,10.62.51,1.48,2.42,3.57,1.1,4.38-6.67,4.08-2.32,10.13-3.16,15.2-1.51,6.08-5.45,7.81-10.98,5.6-4.29-1.72-5.8,0-6.85,3.88-1.54,5.73-3.5,11.36-5.27,17.02-8.15-3.6-16.58-6.09-25.55-6.42-.87-2.85-1.74-5.71-2.61-8.56,1.38-4.86,2.76-9.72,4.14-14.58Z"/>
    <path class="cls-3" d="m385.01,93.85c.87,2.85,1.74,5.71,2.61,8.56-2.67.24-5.38.31-8.02.76-17.71,3.02-32.73,10.12-41.02,27.29-6.29.32-12.57.82-18.83-.38,3.62-6.94,7.12-13.94,10.91-20.79,1.87-3.38,4.82-6.17,8.5-7.24,14.98-4.35,30.14-7.91,45.86-8.21Z"/>
    <path class="cls-2" d="m443.23,135.78c2.69-21.45,18.42-22.99,35.16-22.97,2.64,8.71,5.27,17.41,7.91,26.12-14.45.21-28.79-1.04-43.07-3.15Z"/>
    <path class="cls-3" d="m398.63,132.7c-17.92-.75-35.84-1.5-53.76-2.25,11.8-14.59,26.4-22.9,45.83-20.39,2.64,7.55,5.29,15.1,7.93,22.65Z"/>
    <path class="cls-7" d="m390.69,110.05c-19.43-2.51-34.03,5.81-45.83,20.39-2.09,0-4.19.01-6.29.02,8.29-17.18,23.31-24.27,41.02-27.3,2.64-.45,5.34-.51,8.02-.76,8.97.33,17.4,2.82,25.55,6.42,7.29,5.62,14.91,10.91,19.96,18.88,1.57,2.48,3.76,4.73,3.64,7.99-2.17-.1-4.35-.21-6.53-.31-4.88-8.03-10.32-15.49-19.65-18.91-5.95-4.26-12.62-6.28-19.89-6.44Z"/>
    <path class="cls-6" d="m390.69,110.05c7.28.16,13.95,2.18,19.89,6.44-1.76,5.84-3.51,11.69-5.27,17.53-2.34.11-4.76.62-6.69-1.33-2.64-7.55-5.29-15.1-7.93-22.64Z"/>
    <path class="cls-3" d="m405.32,134.03c1.76-5.84,3.51-11.69,5.27-17.53,9.33,3.42,14.77,10.88,19.65,18.91-8.31-.46-16.61-.92-24.92-1.37Z"/>
    <path class="cls-1" d="m340.77,302.45c-.11,2.08-.22,4.16-.33,6.23-44.73,0-89.47-.02-134.2-.02-.07-2.06-.14-4.12-.21-6.17.07-9.82.15-19.63.22-29.45,13.54-.19,27.07-.54,40.61-.54,31.17.02,62.34.21,93.51.33.14,9.87.27,19.75.41,29.62Z"/>
  </g>
</svg>