<?xml version="1.0" encoding="UTF-8"?>
<svg id="Calque_2" data-name="Calque 2" xmlns="http://www.w3.org/2000/svg" viewBox="0 0 600 407.47">
  <defs>
    <style>
      .cls-1 {
        fill: #fbfbff;
      }

      .cls-1, .cls-2, .cls-3, .cls-4, .cls-5, .cls-6, .cls-7, .cls-8, .cls-9, .cls-10, .cls-11, .cls-12, .cls-13 {
        stroke-width: 0px;
      }

      .cls-2 {
        fill: #eaeafb;
      }

      .cls-3 {
        fill: #9694eb;
      }

      .cls-4 {
        fill: #edeef1;
      }

      .cls-5 {
        fill: #9594c1;
      }

      .cls-6 {
        fill: #9a6750;
      }

      .cls-7 {
        fill: #7a79b2;
      }

      .cls-8 {
        fill: #e7e8eb;
      }

      .cls-9 {
        fill: #e8e9ec;
      }

      .cls-10 {
        fill: #afafd1;
      }

      .cls-11 {
        fill: #8b91a5;
      }

      .cls-12 {
        fill: #cac9e0;
      }

      .cls-13 {
        fill: #2d0e30;
      }
    </style>
  </defs>
  <g id="inscription">
    <path class="cls-8" d="m60.16,308.5c-17.46,0-34.93-.21-52.39.08C1.81,308.69,0,306.6,0,300.74.14,203.16.13,105.59,0,8.01,0,2.31,1.54-.61,7.65.11c1.91.22,3.88.03,5.82.03,191.12,0,382.25,0,573.37,0q12.97,0,12.98,13.12c0,94.67-.11,189.34.18,284,.03,8.7-1.99,12.12-11.19,11.41-10.28-.8-20.68-.14-31.03-.12-.16-13.72-.48-27.43-.42-41.15.03-7.42-.2-14.67-4.11-21.28-2.02-3.68-3.68-7.66-7.94-9.47-.89-2.96-1.78-5.91-2.61-8.7,8.1-3.29,16.21-6.02,23.44-10.72,5.49.04,11.05-.43,16.47.22,8.16.98,9.58-2.77,9.55-10-.23-63.29-.26-126.59.03-189.88.03-7.66-2.14-9.85-9.81-9.81-56.24.3-112.48.28-168.72.03-7.29-.03-10.13,1.52-10.05,9.57.43,42.62.24,85.25.26,127.88-3.28.03-6.56.06-9.85.09.02-42.9-.08-85.8.19-128.7.04-6.71-1.94-8.86-8.76-8.83-56.5.23-113,.21-169.5.02-6.3-.02-8.36,1.91-8.33,8.27.25,57.74.23,115.47.29,173.21-3.94,1.54-7.88,3.09-11.82,4.63.02-58.41-.12-116.82.23-175.23.05-8.29-1.82-11.04-10.64-10.98-55.23.42-110.47.36-165.7.04-7.98-.05-10.41,2.1-10.36,10.23.32,61.31.11,122.63.22,183.95.03,17.22-2.6,15.29,15.43,15.37.02,2.57.06,5.14.07,7.72q.02,22.14,22.93,21.07c1.98,2.76,5.05,2.21,7.82,2.55.12,3.02,1.71,5.47,3.34,7.8,12.09,17.21,9.1,34.58.75,52.06Z"/>
    <path class="cls-5" d="m553.24,246.12c3.92,6.61,4.14,13.86,4.11,21.28-.05,13.72.26,27.43.42,41.15-.22,9.67-.45,19.34-.67,29.02-10.34,2.41-20.89,1.86-31.38,2.13-1.63-1.73-3.26-3.46-4.88-5.18-.6-1.48-1.2-2.95-1.8-4.43-1.4-1.54-2.8-3.09-4.2-4.63-.68-1.12-1.37-2.24-2.05-3.36-.5-2.52-2.17-4.18-4.14-5.63-.1-1.55-.16-3.12-1.8-3.98-3.86-5.23-7.72-10.46-11.58-15.69-3.77-5.61-7.89-11.02-11.24-16.87-4.56-7.97-11.02-10.5-20.07-10.34-26.15.47-52.32-.06-78.48.23-31.42.34-23.84-4.97-43.78,23.88-.18.26-.26.59-.39.89-4.95,6.2-9.82,12.45-13.41,19.58-.57.81-1.14,1.61-1.72,2.42-1.31,1.83-2.63,3.65-3.94,5.48-1.54.66-1.97,2.03-2.23,3.5-2.12,1.52-3.67,3.41-3.99,6.11-.68.97-1.37,1.94-2.05,2.91-1.4,1.63-2.79,3.26-4.19,4.89-6.41-.03-12.83-.06-19.24-.08-4.04-9.75-3.9-21.21-11.05-29.54-3.18-3.7-2.99-7.06-2.48-11.02,5.74.5,7.93-1.43,8.91-7.83,1.32-8.6.48-17.25,2.08-25.74,8.62.08,17.33-.63,25.82.43,14.37,1.8,23.22-4.19,28.2-17.16,1.45-.62,3.03-1.98,4.33-1.75,20.38,3.61,40.92.66,61.35,1.69-.86,1.71-1.83,3.37-2.58,5.12-2.53,5.95.4,9.69,5.27,12.53,5.36,3.13,10.24,1.46,13.62-2.84,3.18-4.05,5.64-9.07-.84-12.97,0-.64,0-1.29,0-1.93,23.3-.63,46.68,1.78,69.88-1.95,1.67,3.09,3.3,6.2,5.02,9.26,2.91,5.18,6.34,9.74,13.08,9.76,11.52.04,23.04-.05,34.56.07,4.12.04,5.43-1.74,5.67-5.74.27-4.56-2.09-9.58,1.85-13.65Z"/>
    <path class="cls-4" d="m550.92,389.83h37.8c-1.51,11.27-6.44,16.35-16.39,17.46-2.24.25-4.52.07-6.79.07-173.33,0-346.67-.03-520,.11-7.61,0-13.97-1.49-18.96-7.5-1.93-2.32-3.95-4.51-2.72-7.71,1.24-3.23,4.3-2.25,6.74-2.32,4.85-.12,9.7-.02,14.55,0,1.2,2.68.97,6.2,5.74,6.1,12.72-.28,25.46-.04,38.19-.07,6.17-.02,3.75-3.18,2.1-6,41.57.05,83.15.1,124.72.15-.58,1.64-3.13,2.6-1.44,5.45,10.74.59,21.78,1.7,32.54-6.26.22,4.58,1.7,6.53,5.71,6.58,4.65.06,4.96-2.96,5.77-6,2.04.11,4.28-.37,5.56,1.92.25,1.48-.13,3.78,1.83,3.84,7.15.21,14.6,2.15,21.09-2.79,9.61,5.59,22.4,4.29,29.3-2.99,67.53-.04,135.07-.08,202.6-.13,8.67,8.96,23.68,9.01,32.06.09Z"/>
    <path class="cls-10" d="m60.16,308.5c8.35-17.47,11.34-34.85-.75-52.06-1.63-2.33-3.22-4.77-3.34-7.8,3.08-.18,6.42.41,8.43-2.89q19.64.23,20.54-18.75c.03-.63.24-1.26.36-1.89,2.72-.12,5.78.3,5.97-3.79,1.99-.27,3.98-.55,5.97-.82,1.53,1.96,3.64,2.41,5.98,2.27.14,10.86-4.97,21.47-1.62,32.48,5.41,17.78,10.87,35.54,16.31,53.3-.55,6.24-3.05,11.59-6.55,16.79-12.71,18.92-25.13,38.03-37.67,57.07-6.54-2.05-11.04-7.27-16.63-10.81-2.92-1.86-5.32-3.37-8.5-1.04,2.57-20.92,3.92-42.07,11.48-62.07Z"/>
    <path class="cls-7" d="m290.53,339.37c6.41.03,12.83.06,19.24.08,10.55,3.35,21.65,3.42,32.4,3.54,50.05.56,100.11.54,150.15.04,11.1-.11,22.44-.47,33.39-3.33,10.49-.27,21.04.28,31.38-2.13,2.87,5.57,5.63,11.13-1.37,15.84-13.95,0-27.9,0-41.85.01-64.32,0-128.64,0-192.96,0-8.85.02-17.7.03-26.55.05-2.13-4.47-3.28-9.21-3.84-14.11Z"/>
    <path class="cls-5" d="m513.89,353.42c13.95,0,27.9,0,41.85-.01-2,12.09.99,24.83-4.81,36.42-8.38,8.92-23.39,8.88-32.06-.09-5.72-11.55-2.8-24.28-4.97-36.32Z"/>
    <path class="cls-5" d="m48.68,370.57c3.18-2.33,5.58-.82,8.5,1.04,5.58,3.54,10.09,8.76,16.63,10.81,5.74,2.62,10.22,8.14,17.36,7.55,1.65,2.82,4.07,5.99-2.1,6-12.73.03-25.46-.21-38.19.07-4.77.1-4.54-3.41-5.74-6.1-3.9-7.38-2.84-13.86,3.54-19.37Z"/>
    <path class="cls-7" d="m536.11,219.51c3-2.9,1.71-6.64,1.84-10.04.2-5.41,1-11.34,6.72-12.57,6.98-1.5,15.05-3.41,21.28,1.62,5.25,4.24,3.31,10.46,1.17,16.01-.35.9-.67,1.8-1.01,2.71-7.22,4.69-15.33,7.43-23.44,10.72.84,2.78,1.73,5.74,2.61,8.7-17.68,1.86-35.05,5.34-52.24,9.78-23.21,3.72-46.59,1.31-69.88,1.94-.63,0-1.25-.02-1.87-.1-3.93-4.12-7.85-4.13-11.76.02-.62,0-1.23.05-1.83.16-20.43-1.03-40.97,1.92-61.35-1.69-1.3-.23-2.88,1.13-4.33,1.75-.45-2.01-1.38-3.47-3.64-3.86-15.07-2.6-30.13-5.25-45.19-7.89,1.93-4.68,3.85-9.37,5.78-14.05,36.31-1.95,72.5-6.05,108.96-5.21,15.45.36,30.93-.17,46.4-.3,2.49-.08,4.99-.17,7.48-.25,14.21,3.26,28.78,1.94,43.13,3.37l3.48.47c7.63.6,15.26,1.11,22.87,1.85,2.68.26,4.34-.36,4.83-3.14Z"/>
    <path class="cls-7" d="m403.85,145.24c22.13,1.25,44.38-1.15,66.44,2.27,8.87,1.38,17.8,2.35,26.64,3.89,5.88,1.02,10.73,3.97,13.37,9.7-61.98-.04-123.95-.07-185.93-.11,4.47-8.47,12.79-10.26,21.03-11.14,16.18-1.74,32.26-4.65,48.61-4.52,3.28-.03,6.56-.06,9.85-.09Z"/>
    <path class="cls-1" d="m493.06,246.43c17.19-4.43,34.57-7.92,52.24-9.78,4.26,1.81,5.92,5.79,7.94,9.47-3.94,4.08-1.58,9.09-1.85,13.65-.24,4-1.56,5.78-5.67,5.74-11.52-.12-23.04-.03-34.56-.07-6.74-.02-10.18-4.58-13.08-9.76-1.72-3.06-3.35-6.17-5.02-9.26Z"/>
    <path class="cls-12" d="m207.9,189.3c6.16-2.12,12.32-4.24,18.47-6.36,3.08,4.01,6.16,8.01,9.23,12.02-9.02,5.99-19.91,5.77-29.76,9.01-3.46-.54-6.69.23-9.76,1.81-9.2.65-18.4,1.29-28.1,1.98,3.91-4.74,14.28-3.13,12.46-14.08,4.14-2.26,10.2,5.58,15.62.25,3.94-1.54,7.88-3.09,11.82-4.63Z"/>
    <path class="cls-3" d="m25.25,217.31c.03-2.88.43-5.81.03-8.63-.84-5.95,1.01-10.36,6.36-13.21,5.96,12.52,6.92,26.72,13.11,39.17-.47,4.32,2.41,7.61,3.5,11.46q-22.91,1.07-22.93-21.07c0-2.57-.04-5.14-.07-7.72Z"/>
    <path class="cls-11" d="m48.25,246.1c-1.08-3.84-3.96-7.14-3.5-11.46,5.62-1.55,11.24-3.1,16.86-4.65,5.76,4.38,6.78,9.62,2.89,15.77-2.01,3.3-5.35,2.71-8.43,2.89-2.78-.34-5.84.21-7.82-2.55Z"/>
    <path class="cls-13" d="m341.31,294.58c.13-.3.21-.63.39-.89,19.94-28.85,12.36-23.53,43.78-23.88,26.16-.29,52.33.25,78.48-.23,9.05-.16,15.51,2.37,20.07,10.34,3.35,5.85,7.46,11.26,11.24,16.87-13.16.1-26.32.21-39.48.31-25.02-.03-50.04-.05-75.06-.08-7.33-.06-14.69.21-21.99-.29-5.82-.39-12.1,2.25-17.42-2.17Z"/>
    <path class="cls-7" d="m298.97,222.71c-1.93,4.68-3.85,9.37-5.78,14.05-5.54,8.8-4.96,18.71-5.2,28.48-1.6,8.49-.76,17.14-2.08,25.74-.98,6.4-3.18,8.33-8.91,7.83-8.32-.94-16.65-.91-24.99-.16-6.97-3.39-5.5-9.39-4.18-14.88,5.28-21.86,9.85-43.86,13.3-66.09,1.08-5.26,2.16-10.52,3.24-15.78,11.82.27,23.21-3.12,34.88-4.11,2.3,1.41.89,5.01,3.63,6.17.25,6.57-2.61,12.5-3.92,18.75Z"/>
    <path class="cls-12" d="m252.01,298.65c8.33-.75,16.66-.79,24.99.16-.51,3.96-.7,7.32,2.48,11.02,7.15,8.33,7.01,19.8,11.05,29.54.56,4.9,1.71,9.64,3.84,14.11,1.15,4.56,2.3,9.13,3.44,13.69-1.93,10.3-8.39,16.25-18.22,18.97,4.82-16.66-1.38-30.82-10.45-46.62-4.78,13.54-8.9,25.21-13.02,36.88-6.79,7.88-15.83,10.72-25.79,11.51,2.97-6.08,10.15-9.36,11.57-16.3,4.29-21,8.23-42.07,12.3-63.11,1.16-3.71-1.64-6.53-2.2-9.85Z"/>
    <path class="cls-13" d="m525.72,339.69c-10.95,2.87-22.29,3.22-33.39,3.33-50.05.5-100.11.52-150.15-.04-10.76-.12-21.85-.18-32.4-3.54,1.4-1.63,2.79-3.26,4.19-4.89,2.55.25,5.11.72,7.66.72,63.86.04,127.71.04,191.57,0,2.55,0,5.1-.5,7.65-.77,1.63,1.73,3.26,3.46,4.88,5.18Z"/>
    <path class="cls-1" d="m287.99,265.24c.24-9.76-.35-19.68,5.2-28.48,15.06,2.64,30.12,5.29,45.19,7.89,2.27.39,3.19,1.86,3.64,3.86-4.98,12.97-13.83,18.95-28.2,17.16-8.49-1.06-17.21-.35-25.82-.43Z"/>
    <path class="cls-13" d="m514.84,325.45c1.4,1.54,2.8,3.09,4.2,4.63-3.45,2.64-7.48,1.51-11.24,1.51-63.93.07-127.85.05-191.78.06.32-2.69,1.87-4.58,3.99-6.1,44.92.14,89.84.35,134.75.39,20.03.02,40.05-.31,60.08-.49Z"/>
    <path class="cls-13" d="m508.64,316.47c1.97,1.44,3.64,3.11,4.14,5.63-63.52-.01-127.03-.03-190.55-.04,1.31-1.83,2.63-3.65,3.94-5.48,18.15.1,36.29.2,54.44.3,25.07,1.57,50.13,1.54,75.2.02,17.61-.14,35.22-.29,52.83-.43Z"/>
    <path class="cls-7" d="m341.31,294.58c5.32,4.43,11.6,1.78,17.42,2.17,7.3.49,14.66.23,21.99.29-.16,5.67-.32,11.34-.48,17.01-17.44.04-34.89.07-52.33.11,3.59-7.13,8.46-13.38,13.41-19.58Z"/>
    <path class="cls-1" d="m316.02,331.65c63.93,0,127.85.02,191.78-.06,3.76,0,7.79,1.13,11.24-1.51.6,1.48,1.2,2.95,1.8,4.43-2.55.27-5.1.77-7.65.77-63.86.04-127.71.04-191.57,0-2.55,0-5.11-.47-7.66-.72.68-.97,1.37-1.94,2.05-2.91Z"/>
    <path class="cls-7" d="m455.78,297.12c13.16-.1,26.32-.21,39.48-.31,3.86,5.23,7.72,10.46,11.58,15.69-2.38,2.35-5.41,1.61-8.22,1.62-14.12.03-28.24-.04-42.36-.08-.16-5.64-.32-11.27-.48-16.91Z"/>
    <path class="cls-1" d="m322.24,322.05c63.52.01,127.03.03,190.55.04.68,1.12,1.37,2.24,2.05,3.36-20.03.17-40.05.5-60.08.49-44.92-.04-89.84-.25-134.75-.39.26-1.47.7-2.84,2.23-3.5Z"/>
    <path class="cls-1" d="m327.9,314.16c17.44-.04,34.89-.07,52.33-.11.13.94.26,1.88.39,2.82-18.15-.1-36.29-.2-54.44-.3.57-.81,1.14-1.61,1.72-2.42Z"/>
    <path class="cls-1" d="m456.26,314.03c14.12.04,28.24.1,42.36.08,2.81,0,5.84.73,8.22-1.62,1.64.86,1.7,2.43,1.8,3.98-17.61.14-35.22.29-52.83.43.15-.96.29-1.91.44-2.87Z"/>
    <path class="cls-5" d="m320.93,353.43c-1.82,12.11,1.01,24.82-4.67,36.44-6.9,7.28-19.69,8.59-29.3,2.99,2.93-4,4.63-9.71,11.92-5.15,2.66,1.66,5.82-1.03,6.07-5.14.4-6.48-1.27-11.88-7.13-15.41-1.15-4.56-2.3-9.13-3.44-13.69,8.85-.02,17.7-.03,26.55-.05Z"/>
    <path class="cls-5" d="m256.13,376.4c3.78,3.98,3.12,8.73,2.35,13.5-.81,3.04-1.11,6.06-5.77,6-4.01-.05-5.5-2-5.71-6.58-10.77,7.96-21.8,6.85-32.54,6.26-1.69-2.85.86-3.81,1.44-5.45,4.91-.15,9.82-.27,14.45-2.22,9.96-.78,19-3.63,25.79-11.51Z"/>
    <path class="cls-5" d="m264.04,391.81c3.99-3.64,9.47-1.87,13.92-3.85,1.14-.16,1.88-.66,1.68-1.96l-.04.14c9.83-2.72,16.29-8.68,18.22-18.97,5.85,3.53,7.53,8.92,7.13,15.41-.26,4.11-3.41,6.8-6.07,5.14-7.28-4.55-8.99,1.15-11.92,5.15-6.49,4.94-13.94,2.99-21.09,2.79-1.96-.06-1.58-2.36-1.83-3.84Z"/>
    <path class="cls-8" d="m254.21,308.5c-45.4.02-90.79.04-136.19.06-5.44-17.77-10.9-35.53-16.31-53.3-3.35-11,1.75-21.62,1.62-32.48.8-1.83,1.61-3.66,2.41-5.48,26.32.02,52.65-.37,78.96.26,9.34.22,13.1-2.51,11.39-11.78,3.07-1.59,6.29-2.35,9.76-1.81.11,14.92-1.45,13.25,13.62,13.37,13.89.11,27.78.23,41.67.34-3.45,22.23-8.02,44.22-13.3,66.09-1.33,5.49-2.79,11.5,4.18,14.88.56,3.32,3.36,6.14,2.2,9.85Z"/>
    <path class="cls-10" d="m105.74,217.3c-.8,1.83-1.61,3.66-2.41,5.48-2.33.14-4.44-.31-5.98-2.27-.07-11.91-.08-23.82-.22-35.72-.15-12.47-7.93-31.69-16.2-38.28,9.66,24.93,9.53,49.94,10.45,74.82-.19,4.1-3.26,3.67-5.97,3.79-.1-6.04-.59-12.1-.19-18.11.43-6.42-1.41-9.31-8.41-8.81-7.28.52-14.63-.01-21.95-.09-4.14-4.07-2.63-8.93-1.47-13.43,2.7-10.49,5.98-20.83,8.75-31.31,2.61-9.91.53-13.12-9.53-15.14-2.48-.5-5.1-.23-7.66-.31,3.7-8.08,15.23-16.81,20.5-15.54,5.96,3.57,10.55,8.45,13.06,14.73,3.46-.76,2.77-4,4.74-5.14,3.21,5.23,6.42,10.46,9.62,15.69-3.01,6.19,1.09,11.04,3.67,15.67,6.06,10.85,10.01,21.97,8.36,34.57.28,6.46.57,12.91.85,19.37Z"/>
    <path class="cls-3" d="m54.86,198.12c7.32.07,14.67.61,21.95.09,7-.5,8.84,2.38,8.41,8.81-.4,6.01.09,12.07.19,18.11-.13.63-.33,1.25-.36,1.89q-.91,18.98-20.54,18.75c3.89-6.14,2.87-11.39-2.89-15.77,1.4-3.67-1.13-6.69-1.73-10.02-1.31-7.36-5.62-14.04-5.03-21.85Z"/>
    <path class="cls-7" d="m91.38,221.33c-.92-24.88-.79-49.9-10.45-74.82,8.27,6.59,16.04,25.81,16.2,38.28.14,11.91.15,23.82.22,35.72-1.99.27-3.98.55-5.97.82Z"/>
    <path class="cls-7" d="m54.86,198.12c-.58,7.81,3.73,14.49,5.03,21.85.59,3.33,3.13,6.35,1.73,10.02-5.62,1.55-11.24,3.1-16.86,4.65-6.19-12.45-7.15-26.65-13.11-39.17-1.43-6.31,1.4-11.86,2.98-17.69,3.59-13.24,6.9-26.56,10.32-39.85,2.56.08,5.19-.18,7.66.31,10.06,2.01,12.14,5.23,9.53,15.14-2.76,10.48-6.04,20.82-8.75,31.31-1.16,4.5-2.67,9.36,1.47,13.43Z"/>
    <path class="cls-7" d="m104.89,197.93c1.66-12.6-2.3-23.72-8.36-34.57-2.59-4.63-6.69-9.49-3.67-15.67,4.94,7.55,10.02,15.01,14.74,22.69,2.24,3.65,4.43,4.69,8.66,2.96,8.93-3.66,18.11-6.72,27.18-10.03,2.01,3.32,4.03,6.63,6.04,9.95,0,1.25.44,3.34-.1,3.64-14.37,7.97-26.78,20.16-44.5,21.03Z"/>
    <path class="cls-9" d="m65.91,116.4c-.32-.05-.78,0-.93-.18-3.24-4.1-1.07-19.79,4.01-26.37,4.07-5.28,9.19-7.76,16.08-4.8,4.41,1.89,9.28,2.74,13.7,4.61,2.93,1.24,7.75.51,7.86,5.59.09,4.11-2.66,6.32-6.16,7.76-4.4,1.19-6.45-3.84-11.09-4.03-1.2,5.79-5.9,5.25-10.72,4.41-.58,3.35-1.04,6.08-1.49,8.7-4.21,1.21-9.23-.96-11.26,4.3Z"/>
    <path class="cls-11" d="m65.91,116.4c2.03-5.27,7.05-3.09,11.26-4.3.45-2.62.92-5.35,1.49-8.7,4.82.84,9.52,1.38,10.72-4.41,4.64.19,6.69,5.22,11.09,4.03,1.64,5.39-2.69,10.55.08,16.25-4.92.95-9.24,1.77-13.34,2.56-3.13-2.81-1.13-6.46-2.34-9.49-6.29,6.13-.52,13.17-1.62,19.64-1.96,1.14-1.28,4.38-4.74,5.14-2.51-6.28-7.1-11.16-13.06-14.73.16-2,.31-3.99.47-5.99Z"/>
    <path class="cls-11" d="m149.49,173.26c-2.01-3.32-4.03-6.63-6.04-9.95,8.62-9.63,15.05-9.16,23.07,1.68-2.67,1.8-3.41,4.49-3.49,7.49-4.51.26-9.03.52-13.54.77Z"/>
    <path class="cls-3" d="m163.04,172.48c.08-3,.81-5.7,3.49-7.49,8.07,4.86,5.33,9.71.36,14.84-3.36-1.74-3.5-4.59-3.85-7.35Z"/>
    <path class="cls-2" d="m298.97,222.71c1.31-6.25,4.17-12.17,3.92-18.75,8-13.9,12.65-29.48,21.48-42.97,61.98.04,123.95.07,185.93.11.64.69,1.28,1.38,1.91,2.07,2.62,4.58,5.25,9.15,7.87,13.73,5.34,14.2,10.69,28.41,16.03,42.61-.48,2.78-2.15,3.41-4.83,3.14-7.61-.75-15.25-1.25-22.87-1.85-.7-5.92-4.48-9.76-9.11-12.78-16.23-10.55-31.78-7.31-44.98,9.19-15.47.13-30.94.66-46.4.3-36.46-.85-72.65,3.26-108.96,5.21Z"/>
    <path class="cls-7" d="m299.26,197.8c-11.67.99-23.06,4.37-34.88,4.11-2.87-9.16-5.74-18.32-9.04-28.83-7.45,8.26-13.59,15.07-19.73,21.87-3.08-4.01-6.16-8.01-9.23-12.02,11.32-15.16,22.64-30.32,33.97-45.49,4.63-2.72,9.57-4.13,14.98-3.59,6.86,4.5,10.73,10.51,10.47,19.05-.49,16.41,5.71,30.9,13.47,44.89Z"/>
    <path class="cls-13" d="m249.23,112.49c-4.77-12.32.5-19.44,13.33-18.16,3.16.32,6.38.13,9.57.2,3.63.08,8.94.57,8.99,3.94.14,9.81,14.22,12.14,11.37,23.05-2.07,7.94-6.82,11.03-15.5,9.51-2.47-5.85-9.7-10.04-4.84-18.72-5.98.66-11.75,5.03-14.8-.63-4.18-7.75-5.74-2.46-8.12.8Z"/>
    <path class="cls-9" d="m249.23,112.49c2.37-3.27,3.94-8.55,8.12-.8,3.05,5.66,8.82,1.29,14.8.63-4.85,8.69,2.38,12.87,4.84,18.72-.56.94-1.11,1.88-1.67,2.82-5.41-.54-10.35.88-14.98,3.59-.44-2.06.01-4.18-3.22-5.02-8.71-2.25-10.74-5.93-7.18-14.57,1.12-2.72-4.05-3.33-.71-5.37Z"/>
    <path class="cls-4" d="m509.3,136.42c.24-.54.37-1.39.76-1.54.39-.15,1.05.39,1.59.63-.24.54-.36,1.39-.76,1.54-.39.15-1.05-.39-1.6-.63Z"/>
    <path class="cls-2" d="m504.94,220.32c-14.35-1.42-28.92-.1-43.13-3.37.4-4.11,3.41-5.97,6.62-7.65,13.4-7.01,27.4-2.78,36.51,11.01Z"/>
    <path class="cls-13" d="m504.94,220.32c-9.11-13.79-23.12-18.02-36.51-11.01-3.21,1.68-6.22,3.54-6.62,7.65-2.49.08-4.99.17-7.48.25,13.2-16.5,28.75-19.73,44.98-9.19,4.63,3.01,8.41,6.85,9.11,12.78l-3.48-.47Z"/>
    <path class="cls-1" d="m456.26,314.03c-.15.96-.29,1.91-.44,2.87-25.07,1.51-50.13,1.54-75.2-.02-.13-.94-.26-1.88-.39-2.82.16-5.67.32-11.34.48-17.01,25.02.03,50.04.05,75.06.08.16,5.64.32,11.27.48,16.91Z"/>
    <path class="cls-6" d="m279.63,386c.2,1.3-.54,1.8-1.68,1.96.56-.65,1.12-1.31,1.68-1.96Z"/>
    <circle class="cls-5" cx="415.22" cy="256.14" r="12.47"/>
  </g>
</svg>