<?xml version="1.0" encoding="UTF-8"?>
<svg id="Calque_2" data-name="Calque 2" xmlns="http://www.w3.org/2000/svg" viewBox="0 0 134.79 198.25">
  <defs>
    <style>
      .cls-1 {
        fill: #7a79b2;
        stroke-width: 0px;
      }
    </style>
  </defs>
  <g id="Versions_finales" data-name="Versions finales">
    <g>
      <path class="cls-1" d="m93.24,16.81c2.47,1.22,7.63,1.66,12.85,1.76-1.14-3.61,1.06-15.08-4.81-17.98-5.9-2.92-13.73,5.9-17.26,7.11,3.26,4.08,6.75,7.89,9.22,9.11Z"/>
      <path class="cls-1" d="m.57,196.37c-.38-.38-.57-.84-.57-1.39v-110.58c0-.54.19-1.01.57-1.39s.84-.57,1.39-.57h15.05c.54,0,1.01.19,1.39.57.38.38.57.85.57,1.39v45.15c0,.44.11.68.33.74.22.06.43-.08.65-.41l24.54-45.97c.54-.98,1.36-1.47,2.45-1.47h16.2c.76,0,1.25.22,1.47.65.22.44.16.98-.16,1.64l-24.54,45.97c-.11.44-.16.76-.16.98l26.5,62.98c.11.22.16.55.16.98,0,.87-.55,1.31-1.64,1.31h-16.2c-1.2,0-1.96-.49-2.29-1.47l-19.3-47.27c-.11-.33-.27-.46-.49-.41-.22.06-.44.19-.65.41l-6.54,10.96c-.22.44-.33.76-.33.98v34.84c0,.55-.19,1.01-.57,1.39-.38.38-.85.57-1.39.57H1.96c-.55,0-1.01-.19-1.39-.57Z"/>
      <path class="cls-1" d="m134.79,161.61c0,2.51-.11,6.05-.33,10.63-.55,8.29-3.41,14.7-8.59,19.22-5.18,4.53-12.02,6.79-20.53,6.79s-14.61-2.1-19.63-6.3c-5.02-4.2-8.01-10.39-9-18.57-.65-2.94-.98-6.38-.98-10.31l-.16-53.16c0-8.83,2.7-15.84,8.1-21.02,5.4-5.18,12.51-7.77,21.35-7.77,8.29,0,15.05,2.62,20.28,7.85,5.23,5.23,7.85,12.21,7.85,20.94v4.09c0,.55-.19,1.01-.57,1.39-.38.38-.85.57-1.39.57h-15.05c-.55,0-1.01-.19-1.39-.57-.38-.38-.57-.84-.57-1.39v-3.11c0-3.71-.9-6.79-2.7-9.24-1.8-2.45-3.95-3.68-6.46-3.68-3.05,0-5.54,1.2-7.44,3.6-1.91,2.4-2.86,5.51-2.86,9.32v16.85c0,.33.11.55.33.65.22.11.43.06.65-.16,3.16-2.94,7.09-4.42,11.78-4.42,7.52,0,13.63,2.4,18.32,7.2,4.69,4.8,7.42,11.18,8.18,19.14.54,3.6.82,7.42.82,11.45Zm-19.14-1.31c0-2.83-.27-6.71-.82-11.61-1.31-6.32-4.53-9.49-9.65-9.49-2.62,0-4.77.85-6.46,2.54s-2.81,4.17-3.35,7.44c-.44,3.82-.65,7.53-.65,11.12,0,3.16.16,6.82.49,10.96.54,3.49,1.66,6.16,3.35,8.02,1.69,1.85,3.9,2.78,6.62,2.78s4.93-.98,6.62-2.95c1.69-1.96,2.81-4.74,3.35-8.34.33-3.93.49-7.42.49-10.47Z"/>
      <path class="cls-1" d="m134.79,62.38c-1.27-13.8-8.34-27.15-24.02-39.73-4.33,2.1-8.58,4.57-9.57,6.57-2.16,4.39,3.44,22.63,3.44,22.63,0,0-12.12-18.42-18.13-21.39-6.01-2.96-28.01-1.36-28.01-1.36,0,0,17.66-6.77,19.82-11.16.99-2,.4-6.86-.53-11.55C40.33-2.8,19.87,14.98,6.18,42.64c-3.16,6.39-5.19,13.04-6.18,19.73h134.79Z"/>
    </g>
  </g>
</svg>