<?xml version="1.0" encoding="UTF-8"?>
<svg id="Calque_2" data-name="Calque 2" xmlns="http://www.w3.org/2000/svg" viewBox="0 0 444 231.77">
  <defs>
    <style>
      .cls-1 {
        fill: #eaeafb;
      }

      .cls-1, .cls-2, .cls-3, .cls-4, .cls-5, .cls-6, .cls-7 {
        stroke-width: 0px;
      }

      .cls-2 {
        fill: #9694eb;
      }

      .cls-3 {
        fill: #c0bff3;
      }

      .cls-4 {
        fill: #7a79b2;
      }

      .cls-5 {
        fill: #fff;
      }

      .cls-6 {
        fill: #aba9ef;
      }

      .cls-7 {
        fill: #d5d4f7;
      }
    </style>
  </defs>
  <g id="Versions_finales" data-name="Versions finales">
    <g>
      <g>
        <path class="cls-4" d="m44.19,139.13l-6.72.83c-.21-.01-.32.11-.34.36l-.52,9.25c-.01.25.08.39.3.4l6.58,1.58c.46.07.68.36.65.86l-.32,5.77c-.03.59-.32.81-.86.65L.65,147.04c-.46-.11-.68-.4-.65-.86l.38-6.72c.03-.46.27-.73.74-.78l43.36-6.97h.25c.38.04.56.28.53.74l-.33,5.89c-.03.51-.28.77-.74.78Zm-13.28,9.04l.4-7.03c.01-.25-.08-.36-.3-.33l-20.23,2.55c-.13.04-.2.09-.2.18,0,.09.06.15.18.2l19.82,4.74c.21.05.32-.05.33-.3Z"/>
        <path class="cls-4" d="m43.88,126.31c-2.9,1.36-6.18,1.45-9.85.28l-29.86-9.55c-.2-.06-.35-.19-.45-.38-.1-.19-.11-.38-.05-.58l1.78-5.56c.06-.2.19-.35.38-.45.19-.1.38-.11.58-.05l30.58,9.79c1.61.52,3.05.53,4.32.05,1.27-.48,2.11-1.39,2.54-2.72s.26-2.56-.49-3.69c-.75-1.13-1.93-1.95-3.54-2.47l-30.58-9.79c-.2-.06-.35-.19-.45-.38-.1-.19-.11-.38-.05-.58l1.78-5.56c.06-.2.19-.35.38-.45.19-.1.38-.11.58-.05l29.86,9.55c3.67,1.17,6.28,3.17,7.85,5.98,1.57,2.81,1.8,5.93.71,9.35-1.11,3.47-3.11,5.88-6.01,7.24Z"/>
        <path class="cls-4" d="m29.92,60.66c.2-.05.4-.01.58.1l4.08,2.57c.18.11.29.27.34.48.05.21.01.4-.1.58l-4.3,6.82c-.11.18-.08.33.1.44l31.3,19.73c.18.11.29.27.34.48.05.21.01.4-.1.58l-3.11,4.94c-.11.18-.27.29-.48.34-.2.05-.4.01-.57-.1l-31.3-19.73c-.18-.11-.33-.08-.44.1l-4.06,6.44c-.11.18-.27.29-.48.34-.2.05-.4.01-.57-.1l-4.08-2.57c-.18-.11-.29-.27-.34-.48-.05-.2-.01-.4.1-.58l12.62-20.02c.11-.18.27-.29.48-.34Z"/>
        <path class="cls-4" d="m68.19,79.4c-3.13-.02-5.96-1.33-8.5-3.94l-14.9-15.25c-2.54-2.6-3.79-5.47-3.73-8.59.05-3.12,1.38-5.96,3.98-8.5,2.6-2.54,5.47-3.81,8.62-3.8,3.14,0,5.98,1.31,8.52,3.92l14.9,15.25c2.54,2.6,3.78,5.48,3.71,8.62-.07,3.14-1.4,5.98-4.01,8.52-2.6,2.54-5.47,3.8-8.59,3.78Zm5.62-11.82c-.06-1.33-.65-2.57-1.77-3.72l-15.34-15.71c-1.12-1.15-2.35-1.77-3.68-1.86-1.33-.09-2.51.37-3.54,1.37-1.03,1-1.51,2.17-1.43,3.48.07,1.32.67,2.55,1.8,3.7l15.34,15.71c1.12,1.15,2.34,1.78,3.66,1.88,1.31.11,2.49-.34,3.52-1.35,1.03-1,1.51-2.17,1.46-3.51Z"/>
        <path class="cls-4" d="m102.14,14.57c-.08.2-.21.34-.4.42l-12.51,5.61c-.19.09-.25.23-.16.42l4.91,10.94c.09.19.23.25.42.16l7.41-3.33c.19-.09.39-.09.58-.02.2.08.34.21.42.4l2,4.46c.09.19.09.39.02.58-.07.2-.21.34-.4.42l-7.41,3.33c-.19.09-.25.23-.16.42l4.94,11c.09.19.23.25.42.16l12.51-5.61c.19-.09.39-.09.58-.02.2.08.34.21.42.4l1.97,4.4c.09.19.09.39.02.58-.07.2-.21.34-.4.42l-18.82,8.44c-.19.09-.39.09-.58.02-.2-.07-.34-.21-.42-.4l-17.56-39.14c-.09-.19-.09-.39-.02-.58.07-.2.21-.34.4-.42l18.82-8.44c.19-.09.39-.09.58-.02.2.08.34.21.42.4l1.97,4.4c.09.19.09.39.02.58Zm-17.39-3.64c-.18-.1-.25-.3-.2-.61l.74-7.5c.02-.38.24-.66.66-.85l4.17-1.87c.31-.14.54-.14.7,0,.15.14.21.36.16.66l-1.61,7.88c-.07.36-.28.61-.63.77l-3.3,1.48c-.27.12-.5.13-.68.03Z"/>
        <path class="cls-4" d="m122.83,45.46c-2.53-1.76-4.12-4.4-4.76-7.94l-3.85-21.29c-.65-3.58-.09-6.61,1.68-9.1,1.76-2.49,4.42-4.05,7.95-4.69,3.58-.65,6.64-.11,9.19,1.6,2.54,1.71,4.14,4.36,4.79,7.94l.14.75c.04.21,0,.41-.12.6-.12.19-.28.31-.49.35l-5.76,1.3c-.5.09-.79-.11-.88-.61l-.28-1.56c-.26-1.46-.89-2.57-1.89-3.33-1-.76-2.18-1.02-3.56-.78-1.33.24-2.33.9-3,1.96-.67,1.07-.87,2.33-.61,3.79l4.04,22.36c.26,1.46.89,2.57,1.89,3.33,1,.77,2.16,1.03,3.5.79,1.37-.25,2.39-.9,3.06-1.97.67-1.07.87-2.33.61-3.78l-.28-1.56c-.04-.21,0-.4.12-.57.12-.17.28-.28.49-.31l5.85-.8c.21-.04.4,0,.57.12.17.12.28.28.31.49l.14.75c.64,3.54.07,6.58-1.71,9.11-1.78,2.54-4.46,4.13-8.04,4.77-3.54.64-6.57.08-9.1-1.68Z"/>
        <path class="cls-4" d="m149.66,41.82c-2.06-2.35-2.97-5.34-2.72-8.97l1.47-21.27c.25-3.63,1.56-6.46,3.93-8.5,2.37-2.04,5.37-2.94,9-2.68,3.63.25,6.49,1.55,8.57,3.9,2.08,2.35,3,5.34,2.75,8.97l-1.47,21.27c-.25,3.63-1.57,6.46-3.96,8.5s-5.4,2.93-9.03,2.68c-3.63-.25-6.48-1.55-8.54-3.9Zm12.56-3.68c.96-.93,1.49-2.2,1.6-3.8l1.52-21.9c.11-1.6-.24-2.93-1.06-3.99-.82-1.05-1.94-1.63-3.38-1.73-1.44-.1-2.62.32-3.55,1.25-.93.93-1.46,2.2-1.57,3.8l-1.52,21.9c-.11,1.6.23,2.93,1.03,3.98.8,1.05,1.91,1.63,3.35,1.73,1.43.1,2.63-.32,3.58-1.25Z"/>
        <path class="cls-4" d="m174.15,46.86c-.1-.19-.11-.38-.05-.58l13.03-40.87c.06-.2.19-.35.38-.45.19-.1.38-.11.58-.05l5.56,1.77c.2.06.35.19.45.38.1.19.11.38.05.58l-11.23,35.25c-.06.2,0,.33.21.4l13.06,4.16c.2.06.35.19.45.38.1.19.11.38.05.58l-1.46,4.59c-.06.2-.19.35-.38.45-.19.1-.38.11-.58.05l-19.65-6.26c-.2-.06-.35-.19-.45-.38Z"/>
        <path class="cls-4" d="m235.01,33.11c-.2.05-.4.02-.58-.09l-11.76-7.04c-.18-.11-.33-.07-.44.11l-6.16,10.29c-.11.18-.07.33.11.43l6.97,4.17c.18.11.3.26.35.47.05.2.02.4-.09.58l-2.51,4.19c-.11.18-.27.3-.47.35-.2.05-.4.02-.58-.09l-6.97-4.17c-.18-.11-.33-.07-.44.11l-6.2,10.34c-.11.18-.07.33.11.43l11.76,7.04c.18.11.3.26.35.47.05.2.02.4-.09.58l-2.48,4.14c-.11.18-.26.3-.47.35-.2.05-.4.02-.58-.09l-17.69-10.6c-.18-.11-.3-.26-.35-.47-.05-.2-.02-.39.09-.58l22.05-36.8c.11-.18.26-.3.47-.35.2-.05.39-.02.58.09l17.69,10.6c.18.11.3.26.35.47.05.2.02.4-.09.58l-2.48,4.14c-.11.18-.26.3-.47.35Z"/>
      </g>
      <g>
        <g>
          <g>
            <path class="cls-4" d="m163.25,125.37c1.18.58,3.64.79,6.13.84-.54-1.72.51-7.19-2.29-8.58-2.81-1.39-6.55,2.81-8.23,3.39,1.56,1.94,3.22,3.76,4.4,4.34Z"/>
            <path class="cls-4" d="m178.67,165.85c6.54-13.22,7.35-26.14-7.06-37.7-2.07,1-4.09,2.18-4.56,3.13-1.03,2.09,1.64,10.79,1.64,10.79,0,0-5.78-8.79-8.65-10.2-2.87-1.41-13.36-.65-13.36-.65,0,0,8.42-3.23,9.46-5.32.47-.95.19-3.27-.25-5.51-17.88-4.38-27.64,4.09-34.16,17.29-7.78,15.73-1.34,34.78,14.39,42.56,15.73,7.78,34.78,1.34,42.56-14.39Z"/>
          </g>
          <path class="cls-6" d="m166.39,72.95l-2.17,11.8c-.15.79.32,1.56,1.08,1.83,7.08,2.44,13.65,5.94,19.55,10.3.76.56,1.84.38,2.35-.42l7.35-11.58c.47-.75.27-1.74-.47-2.22-7.75-5.07-16.43-8.85-25.75-10.99-.9-.21-1.78.39-1.95,1.29Z"/>
          <path class="cls-2" d="m194,104.84c4.94,5.06,9.15,10.81,12.5,17.05.4.74,1.3,1.03,2.05.64l12.98-6.79c.74-.39,1.04-1.3.65-2.04-4.28-8.22-9.94-15.69-16.68-22.05-.63-.59-1.63-.53-2.19.13l-9.38,11.01c-.51.6-.47,1.49.08,2.05Z"/>
          <path class="cls-3" d="m127.22,82.97c.26.73,1.01,1.15,1.76,1,6.72-1.28,13.73-1.63,20.89-.87,1.06.12,2.11.26,3.15.43.91.14,1.74-.55,1.78-1.47l.45-10.68c.04-.86-.63-1.6-1.49-1.63-9.78-.33-19.26,1.17-28.1,4.18-.82.28-1.24,1.18-.95,2l2.51,7.05Z"/>
          <path class="cls-1" d="m81.57,109.43c-5.11,8.43-8.71,17.8-10.41,27.73,2.61-9.46,7.15-18.21,13.13-25.82.57-.72.4-1.78-.38-2.27l-.2-.13c-.73-.46-1.7-.24-2.15.49Z"/>
          <path class="cls-7" d="m93.96,101.15c6.52-5.7,14.02-10.31,22.18-13.49.87-.34,1.27-1.35.83-2.19l-2.58-4.94c-.41-.78-1.37-1.08-2.14-.65-8.31,4.63-15.78,10.67-22.03,17.78-.57.65-.49,1.65.17,2.22l1.52,1.29c.59.5,1.46.49,2.05-.02Z"/>
          <path class="cls-5" d="m128.62,149.75c.41-4.76,2.3-9.32,5.44-12.99.89-1.04.83-2.6-.11-3.59h0c-1.11-1.17-2.99-1.12-4.03.1-3.85,4.52-6.18,10.13-6.69,15.98-.14,1.6,1.15,2.97,2.75,2.94h0c1.37-.03,2.52-1.07,2.64-2.44Z"/>
          <circle class="cls-5" cx="126.31" cy="157.25" r="2.65"/>
          <path class="cls-2" d="m227.64,126.9c-.26-.82-1.16-1.26-1.97-.97l-13.51,4.8c-.79.28-1.2,1.15-.92,1.95.94,2.72,1.73,5.5,2.34,8.34l-5.23-1.49c-.25-.04-.49-.09-.71-.15-6.33-1.77-12.65-3.54-18.93-5.46,2.27,5.17,3.53,10.89,3.53,16.9,0,3.57-.45,7.04-1.29,10.36,6.04-2.17,12.14-4.16,18.27-6.01,5.71-1.72,7.85.56,6.44,6.38-5.67,23.39-19.17,40.97-40.6,51.91-9.56,4.88-15.21,1.08-15.4-12.26-.01-.87.09-1.74.32-2.58.55-1.98,1.25-4.53,2.03-7.37-3.63,1.07-7.46,1.66-11.42,1.71-3.96-.05-7.79-.64-11.42-1.71.78,2.84,1.48,5.39,2.03,7.37.23.84.33,1.71.32,2.58-.19,13.34-5.84,17.14-15.4,12.26-21.43-10.94-34.94-28.52-40.6-51.91-1.41-5.82.73-8.1,6.44-6.38,6.13,1.85,12.24,3.84,18.27,6.01-.84-3.31-1.29-6.78-1.29-10.36,0-6.01,1.27-11.72,3.53-16.9-6.28,1.92-12.61,3.7-18.93,5.46-.21.06-.45.11-.71.15l-21.64,6.18c-.63.18-1.09.74-1.12,1.4-.06,1.19-.09,2.38-.09,3.58-.05,43.05,35.54,80.8,80.41,81.01h0c.05,0,.11,0,.16,0,0,0,.02,0,.03,0s.02,0,.03,0c.05,0,.11,0,.16,0h0c42.87-.21,77.25-34.68,80.18-75.3l.13.06c.74-10.21-.52-20.2-3.47-29.56Z"/>
        </g>
        <g>
          <path class="cls-4" d="m258.28,229.16c-.53-.53-.79-1.17-.79-1.93V74.22c0-.75.26-1.39.79-1.93.53-.53,1.17-.79,1.92-.79h20.83c.75,0,1.39.27,1.93.79.53.53.79,1.17.79,1.93v62.47c0,.61.15.94.45,1.02.3.08.6-.11.9-.57l33.95-63.6c.75-1.36,1.89-2.04,3.4-2.04h22.41c1.05,0,1.73.31,2.04.91.3.6.23,1.36-.23,2.26l-33.95,63.6c-.15.61-.23,1.06-.23,1.36l36.67,87.15c.15.31.23.76.23,1.36,0,1.21-.76,1.81-2.26,1.81h-22.41c-1.66,0-2.71-.68-3.17-2.04l-26.71-65.42c-.15-.45-.38-.64-.68-.57-.3.08-.6.27-.9.57l-9.05,15.17c-.31.6-.45,1.06-.45,1.36v48.21c0,.76-.27,1.4-.79,1.93-.53.53-1.17.79-1.93.79h-20.83c-.76,0-1.4-.26-1.92-.79Z"/>
          <path class="cls-2" d="m444,181.06c0,3.47-.15,8.37-.45,14.71-.76,11.47-4.72,20.34-11.88,26.6-7.17,6.26-16.64,9.39-28.41,9.39s-20.22-2.9-27.16-8.71c-6.94-5.81-11.09-14.37-12.45-25.69-.9-4.07-1.36-8.83-1.36-14.26l-.23-73.57c0-12.22,3.73-21.92,11.2-29.09,7.47-7.17,17.32-10.75,29.54-10.75,11.47,0,20.82,3.62,28.07,10.86,7.24,7.24,10.86,16.9,10.86,28.97v5.66c0,.76-.27,1.4-.79,1.93-.53.53-1.17.79-1.92.79h-20.83c-.76,0-1.4-.26-1.93-.79-.53-.53-.79-1.17-.79-1.93v-4.3c0-5.13-1.24-9.39-3.74-12.79-2.49-3.4-5.47-5.09-8.94-5.09-4.23,0-7.66,1.66-10.3,4.98-2.64,3.32-3.96,7.62-3.96,12.9v23.31c0,.45.15.76.45.9.3.15.6.08.91-.23,4.37-4.07,9.81-6.11,16.3-6.11,10.41,0,18.86,3.32,25.35,9.96,6.49,6.64,10.26,15.47,11.32,26.48.75,4.98,1.13,10.26,1.13,15.84Zm-26.48-1.81c0-3.92-.38-9.28-1.13-16.07-1.81-8.75-6.26-13.13-13.36-13.13-3.62,0-6.6,1.17-8.94,3.51-2.34,2.34-3.89,5.77-4.64,10.3-.61,5.29-.91,10.41-.91,15.39,0,4.38.23,9.43.68,15.17.75,4.83,2.3,8.53,4.64,11.09,2.34,2.57,5.39,3.85,9.17,3.85s6.83-1.36,9.17-4.08c2.34-2.71,3.88-6.56,4.64-11.54.45-5.43.68-10.26.68-14.49Z"/>
        </g>
      </g>
    </g>
  </g>
</svg>