<?xml version="1.0" encoding="UTF-8"?>
<svg id="Calque_2" data-name="Calque 2" xmlns="http://www.w3.org/2000/svg" viewBox="0 0 120.83 84.71">
  <defs>
    <style>
      .cls-1 {
        fill: #eaeafb;
      }

      .cls-1, .cls-2, .cls-3, .cls-4, .cls-5, .cls-6 {
        stroke-width: 0px;
      }

      .cls-2 {
        fill: #9694eb;
      }

      .cls-3 {
        fill: #c0bff3;
      }

      .cls-4 {
        fill: #7a79b2;
      }

      .cls-5 {
        fill: #aba9ef;
      }

      .cls-6 {
        fill: #d5d4f7;
      }
    </style>
  </defs>
  <g id="Versions_finales" data-name="Versions finales">
    <g>
      <path class="cls-4" d="m69.82,41.22c.83.6,2.7,1.1,4.62,1.47-.19-1.4,1.35-5.48-.63-6.92-1.98-1.45-5.43,1.3-6.8,1.52.94,1.71,1.98,3.33,2.81,3.94Z"/>
      <path class="cls-4" d="m76.32,74.5c6.8-9.32,9.15-19.18-.42-30.02-1.73.5-3.45,1.14-3.94,1.81-1.07,1.48-.17,8.54-.17,8.54,0,0-3.29-7.55-5.31-9.02-2.02-1.47-10.22-2.28-10.22-2.28,0,0,6.93-1.37,8-2.84.49-.67.58-2.5.54-4.28-13.2-5.76-21.86-.52-28.65,8.78-8.09,11.09-5.66,26.64,5.43,34.74,11.09,8.09,26.64,5.66,34.74-5.43Z"/>
    </g>
    <g>
      <path class="cls-5" d="m82.81,5.5l-3.27,8.9c-.22.6.04,1.26.59,1.57,5.18,2.85,9.83,6.47,13.84,10.65.52.54,1.38.54,1.89-.01l7.28-8.03c.47-.52.44-1.32-.07-1.79-5.35-4.99-11.6-9.1-18.57-12.02-.67-.28-1.44.06-1.69.75Z"/>
      <path class="cls-2" d="m100.02,34.05c3.17,4.61,5.68,9.65,7.44,14.96.21.63.88.98,1.51.77l11.02-3.54c.63-.2.98-.87.78-1.5-2.23-6.98-5.63-13.56-10.02-19.42-.41-.55-1.2-.63-1.73-.19l-8.79,7.32c-.48.4-.57,1.09-.21,1.61Z"/>
      <path class="cls-3" d="m50.95,8.03c.1.6.63,1.03,1.24,1.02,5.41-.09,10.91.58,16.38,2.13.81.23,1.61.49,2.4.76.69.24,1.43-.19,1.59-.91l1.79-8.26c.14-.66-.28-1.33-.94-1.47-7.57-1.57-15.16-1.68-22.45-.53-.67.11-1.13.75-1.01,1.43l1.01,5.83Z"/>
      <path class="cls-1" d="m11.84,22.5C6.73,28.37,2.66,35.19,0,42.7c3.3-7.02,8.02-13.22,13.7-18.34.54-.49.55-1.33.01-1.82l-.14-.13c-.5-.46-1.29-.42-1.74.09Z"/>
      <path class="cls-6" d="m22.6,17.71c5.84-3.57,12.3-6.14,19.09-7.52.73-.15,1.17-.88.94-1.59l-1.35-4.2c-.21-.66-.92-1.02-1.58-.79-7.1,2.49-13.72,6.19-19.55,10.88-.53.43-.61,1.22-.17,1.75l1.01,1.21c.39.47,1.07.58,1.6.26Z"/>
    </g>
  </g>
</svg>