<?xml version="1.0" encoding="UTF-8"?>
<svg id="Calque_2" data-name="Calque 2" xmlns="http://www.w3.org/2000/svg" viewBox="0 0 2397.61 230.22">
  <defs>
    <style>
      .cls-1 {
        fill: #7a79b2;
        stroke-width: 0px;
      }
    </style>
  </defs>
  <g id="transition-down">
    <path class="cls-1" d="m2397.61,82.03s-61.74,36.37-118.4,38.9c-57.51,2.54-106.56,0-176.76-12.69-95.57-16.91-279.93-85.42-378.04-48.21-98.1,37.21-102.33,38.9-152.23,62.58-55.82,27.06-169.14,81.19-309.53,78.65-149.69-2.54-421.17-140.39-532.8-133.62-11.84.85-55.82,6.77-88.8,16.91-32.14,10.15-79.5,32.14-143.77,39.75-27.06,3.38-70.19,9.3-120.09,7.61-12.69-.85-53.28-3.38-101.49-13.53-48.21-10.15-93.03-26.22-133.62-31.29C54.97,77.81,0,91.34,0,91.34V0h2397.61v82.03Zm-191.98,13.53c-5.92-8.46-16.91-3.38-36.37-3.38s-51.59-10.15-49.05-9.3c2.54.85,26.22,12.69,50.74,16.07,25.37,4.23,39.75,5.07,34.67-3.38Zm-155.61-22.83s-20.3-1.69-47.36-7.61c-27.06-6.77-87.11-23.68-127.7-29.6-69.35-9.3-133.62,0-127.7.85,6.77.85,81.19-5.07,148.85,9.3,27.91,5.92,78.65,18.61,104.87,22.83,27.91,5.07,49.05,4.23,49.05,4.23Zm-483.75-.85c14.38-5.92-112.48,39.75-156.46,51.59-17.76,5.07-52.43,13.53-84.57,16.91-32.98,3.38-75.27,3.38-74.42,4.23,0,1.69,49.05,6.77,94.72,0,45.67-6.77,43.98-9.3,64.27-13.53,32.14-6.77,142.08-53.28,156.46-59.2Zm117.56-13.53c1.69,0-6.77-3.38-40.59,9.3-33.83,12.69-56.66,29.6-58.35,31.29-1.69.85,29.6-15.22,55.82-25.37,25.37-10.15,42.29-15.22,43.13-15.22Zm709.56-7.61c-.85.85-16.07,9.3-40.59,21.14-24.53,11.84-58.35,23.68-56.66,22.83,1.69,0,29.6-5.07,62.58-21.14s35.52-23.68,34.67-22.83ZM264.71,98.1c.85-1.69-16.07-1.69-38.06-10.15-21.99-8.46-45.67-13.53-65.97-16.91-33.83-6.77-98.95.85-95.57,1.69,2.54.85,69.35-2.54,105.71,5.92,18.61,4.23,20.3,4.23,48.21,13.53s44.82,8.46,45.67,5.92Zm352.66-20.3c3.38-.85,29.6-13.53,71.04-21.99,41.44-9.3,75.27-4.23,75.27-6.77s-8.46-7.61-52.43-2.54c-43.98,5.07-97.26,32.14-93.87,31.29Zm-11.84-21.14c1.69.85,28.75-10.99,48.21-14.38,19.45-2.54,16.07-4.23,16.07-5.07s-9.3-1.69-22.83,1.69c-14.38,4.23-43.13,16.91-41.44,17.76Zm186.06-19.45c.85,1.69,29.6,6.77,47.36,15.22,17.76,8.46,15.22,5.07,16.07,4.23s-6.77-6.77-20.3-10.99c-13.53-5.07-43.98-10.15-43.13-8.46Zm-238.49,56.66c-.85,2.54,2.54,4.23,16.07-1.69s21.99-10.99,18.61-10.15-7.61,3.38-21.14,6.77c-14.38,3.38-12.69,2.54-13.53,5.07Zm-261.33,10.99c-1.69,0,17.76,6.77,27.91,7.61,10.15.85,16.91.85,16.91-1.69s-.85-4.23-13.53-3.38c-13.53.85-29.6-2.54-31.29-2.54Zm995.41,73.58c-.85.85-20.3-2.54-63.43-2.54s-115.02-20.3-145.46-29.6c-30.45-9.3,84.57,32.98,139.54,34.67,54.97,1.69,70.19-3.38,69.35-2.54Z"/>
    <path class="cls-1" d="m2280.06,152.23c-.85-.85-38.9,2.54-60.89,0-61.74-5.92-143.77-27.06-140.39-24.53s115.86,26.22,143.77,27.91c41.44,3.38,58.35-3.38,57.51-3.38Z"/>
    <path class="cls-1" d="m1923.16,82.88c-1.69-.85-38.06-8.46-80.34-10.15-42.29-1.69-107.41,5.07-104.02,4.23,2.54-.85,49.9-15.22,112.48-10.15s73.58,16.91,71.89,16.07Z"/>
    <path class="cls-1" d="m1729.5,113.33c-.85-.85,16.91-8.46,27.06-9.3,10.15-.85,16.91,0,16.91,2.54s-.85,4.23-13.53,3.38c-14.38-.85-29.6,4.23-30.45,3.38Z"/>
    <path class="cls-1" d="m1699.89,89.65c0-.85-37.21,10.15-53.28,18.61-16.07,7.61-52.43,26.22-51.59,26.22.85.85,35.52-13.53,53.28-21.99,17.76-8.46,51.59-21.99,51.59-22.83Z"/>
    <path class="cls-1" d="m1306.64,225.81c-.85-.85-38.9,2.54-60.89,0-61.74-5.92-143.77-27.06-140.39-24.53,3.38,2.54,115.86,26.22,143.77,27.91,41.44,3.38,58.35-2.54,57.51-3.38Z"/>
    <path class="cls-1" d="m354.36,163.22s10.15-2.54,24.53-.85c14.38,1.69,49.05,7.61,69.35,5.92,35.52-3.38,62.58-22.83,59.2-21.99-3.38,0-36.37,18.61-72.73,16.07-15.22-.85-43.13-4.23-56.66-3.38s-23.68,4.23-23.68,4.23Z"/>
    <path class="cls-1" d="m638.52,106.56c1.69.85,16.91-6.77,36.37-9.3,19.45-1.69,17.76-2.54,17.76-4.23,0-.85-15.22-3.38-28.75,0-13.53,4.23-27.06,12.69-25.37,13.53Z"/>
    <path class="cls-1" d="m131.93,111.63c0-.85,36.37,0,56.66,4.23,20.3,4.23,42.29,16.07,42.29,16.91s-22.83-6.77-43.13-11.84c-19.45-5.07-54.97-8.46-55.82-9.3Z"/>
  </g>
</svg>