<?xml version="1.0" encoding="utf-8"?>
<!-- Generator: Adobe Illustrator 28.0.0, SVG Export Plug-In . SVG Version: 6.00 Build 0)  -->
<svg version="1.1" id="Calque_2_00000009570714945323504270000014970779075097648001_"
	 xmlns="http://www.w3.org/2000/svg" xmlns:xlink="http://www.w3.org/1999/xlink" x="0px" y="0px" viewBox="0 0 74.8 75"
	 style="enable-background:new 0 0 74.8 75;" xml:space="preserve">
<style type="text/css">
	.st0{fill:#FBFBFF;}
</style>
<g id="Versions_finales">
	<path class="st0" d="M37.2,0c20.5,0,37.6,17.1,37.5,37.6c0,20.4-17,37.5-37.4,37.4C16.5,75,0,57.4,0,37.4C0,17.7,16.5,0.1,37.2,0z
		 M66.6,32.6c-1.2-2.7-1.9-4.8-2.9-6.7c-5.7-10.8-14.9-16.8-27-16.5C23.1,9.8,14.1,17.4,8.9,29.7c-0.3,0.7-0.4,1.7-0.1,2.3
		c0.2,0.3,1.4,0.3,2.1,0.2c4-1.1,8.1-2.3,12.1-3.6c9.4-3.1,18.9-3.1,28.3,0c3.3,1.1,6.7,2.2,10,3.2C62.7,32.2,64.3,32.3,66.6,32.6
		L66.6,32.6z M46.3,67.3c0.6-0.2,2-0.5,3.2-1.2c6.1-3.2,10.7-8,14.1-13.9c1.6-2.8,2.8-5.9,3.7-9c1-3.5,0-4.5-3.5-3.7
		c-3.3,0.8-6.6,1.8-9.8,2.9c-9.4,3.1-12.1,10.9-12.4,21.2C41.4,66.2,43,67.3,46.3,67.3z M33.2,60.2c-0.5-1.8-1.4-5-2.3-8.2
		c-0.9-3.3-2.9-6-6-7.3c-4.8-2-9.7-3.7-14.7-5.2c-2.7-0.8-3.6,0.3-3,3c2.6,10.8,8.9,19,18.8,24.1C30.6,68.9,33.2,66.9,33.2,60.2z"/>
</g>
</svg>
